<?xml version="1.0" encoding="UTF-8"?>
<svg version="1.1" xmlns="http://www.w3.org/2000/svg" width="419" height="600">
<path d="M0 0 C2.33642508 1.75087657 4.46689938 3.48998221 6.625 5.4375 C7.8579758 6.54047316 9.09105011 7.64333621 10.32421875 8.74609375 C11.24340088 9.57343018 11.24340088 9.57343018 12.18115234 10.41748047 C13.87238776 11.88896878 15.60297879 13.25148532 17.39453125 14.59765625 C24.69746069 20.36312686 24.69746069 20.36312686 25.5234375 24.83203125 C25.29892554 28.00430207 24.72183071 30.90372618 24 34 C23.63326171 36.41479085 23.27887447 38.83149317 22.9375 41.25 C22.62919439 43.16734583 22.31825658 45.08428078 22 47 C22.99628418 46.70826904 22.99628418 46.70826904 24.01269531 46.41064453 C42.18356805 41.39049187 42.18356805 41.39049187 48.12109375 43.89453125 C51.89963918 46.79912739 54.29379612 50.70793461 56.67578125 54.77929688 C58.04398212 57.07375763 59.5349499 59.22177598 61.09375 61.390625 C76.12942771 82.53324362 87.36145953 106.54821427 85 133 C84.03224363 136.86662658 82.90151543 141.09848457 80 144 C80.75804932 144.09498779 81.51609863 144.18997559 82.29711914 144.2878418 C95.58441477 145.97592844 108.86295486 147.73596241 122 150.375 C122.94109619 150.54733154 123.88219238 150.71966309 124.85180664 150.8972168 C129.19700569 151.82217896 131.5544956 152.60544424 134.9375 155.6015625 C139.7051492 163.45734812 140.50202366 170.59953444 140.375 179.6875 C140.35759766 181.28078125 140.35759766 181.28078125 140.33984375 182.90625 C139.92499203 202.89234179 133.07924586 220.00566976 118.77734375 234.20703125 C108.89442329 243.34407092 108.89442329 243.34407092 104 245 C101.26095303 243.82950028 98.90389085 242.31368557 96.49609375 240.57421875 C86.11657655 233.18571385 76.2153068 227.80476769 64 224 C63.34 225.98 62.68 227.96 62 230 C55.07 230 48.14 230 41 230 C40.67 231.65 40.34 233.3 40 235 C37.82589756 237.89880325 36.51686404 238.86001599 33 239.8125 C30 240 30 240 28.140625 239.515625 C25.61522262 238.9073164 23.34444902 238.90336251 20.75 238.9375 C19.85796875 238.94652344 18.9659375 238.95554688 18.046875 238.96484375 C17.37140625 238.97644531 16.6959375 238.98804688 16 239 C16.33773438 239.8971875 16.67546875 240.794375 17.0234375 241.71875 C32.25486616 283.65211914 18.86620104 333.07816286 5.08007812 373.71801758 C4.73106445 374.75478638 4.73106445 374.75478638 4.375 375.8125 C3.9934375 376.93889893 3.611875 378.06529785 3.21875 379.22583008 C2.09915286 382.69294791 1.12960223 386.1529121 0.21875 389.6796875 C-1.36519104 395.72657816 -3.05727293 401.73668643 -4.8046875 407.73828125 C-22.96424764 465.53144314 -22.96424764 465.53144314 -20 525 C-19.6480147 526.38010057 -19.29646699 527.7603128 -18.9453125 529.140625 C-17.74213627 533.79610908 -16.52103045 538.43690866 -15 543 C-14.47942816 550.80857759 -16.12863423 555.94903254 -21.0625 562 C-35.19393177 577.21846498 -58.57917185 583.31193279 -78.84545898 584.16113281 C-80.22893187 584.18101356 -81.61250344 584.19473846 -82.99609375 584.203125 C-83.74729996 584.20882507 -84.49850616 584.21452515 -85.2724762 584.22039795 C-86.85831316 584.22979647 -88.44416921 584.23636131 -90.0300293 584.24023438 C-92.39994681 584.24984767 -94.76896061 584.28088079 -97.13867188 584.3125 C-110.18510793 584.40468743 -123.44644434 583.43111956 -135.4375 577.8125 C-136.0972583 577.51061768 -136.7570166 577.20873535 -137.43676758 576.89770508 C-146.10567019 572.73863619 -151.84293993 567.31557524 -156.3203125 558.78515625 C-161.69595547 536.75737789 -144.03260893 499.43572084 -134 480 C-135.16015625 478.98292969 -135.16015625 478.98292969 -136.34375 477.9453125 C-151.68824927 464.32277684 -161.77388987 448.97898353 -167 429 C-169.37058513 420.19112115 -173.3410986 414.20583298 -181 409 C-184.03969963 408.4533625 -184.03969963 408.4533625 -187.25 408.5 C-193.99190123 408.13433756 -199.78943231 407.41416467 -204.6015625 402.296875 C-206.27901644 399.94664542 -207.63880884 397.54787064 -209 395 C-209.93972656 393.27910156 -209.93972656 393.27910156 -210.8984375 391.5234375 C-218.51947726 377.15391181 -224.24928676 362.05892589 -227 346 C-228.27875 345.855625 -229.5575 345.71125 -230.875 345.5625 C-233.25692894 345.29357254 -234.84452691 345.07773654 -237 344 C-243.8952686 323.97841732 -241.87183932 296.0107279 -236 276 C-235.78569336 275.26297852 -235.57138672 274.52595703 -235.35058594 273.76660156 C-229.44168659 254.14767957 -219.08361256 237.83565012 -205 223 C-204.12085938 222.06800781 -203.24171875 221.13601562 -202.3359375 220.17578125 C-196.66345491 214.31954218 -190.88409343 209.37535656 -184 205 C-185.43252585 201.6750854 -187.18203395 199.64966656 -189.84375 197.21484375 C-190.59527344 196.51939453 -191.34679687 195.82394531 -192.12109375 195.10742188 C-192.90613281 194.39134766 -193.69117188 193.67527344 -194.5 192.9375 C-196.05457897 191.51183111 -197.6067701 190.08355289 -199.15625 188.65234375 C-200.18975586 187.70862915 -200.18975586 187.70862915 -201.24414062 186.74584961 C-203 185 -203 185 -205 182 C-207.38884962 182.09636306 -207.38884962 182.09636306 -210 183 C-211.94719817 185.33635845 -211.94719817 185.33635845 -213.5 188.25 C-217.27095432 194.53763874 -220.83414786 199.56872874 -228 202 C-236.2039576 202.89936434 -243.9007415 202.49012931 -251 198 C-257.64673618 192.4476138 -260.66447061 186.19127698 -263 178 C-263.44666016 176.56527344 -263.44666016 176.56527344 -263.90234375 175.1015625 C-265.44623253 169.90783526 -266.3609777 165.41466555 -266 160 C-264.5437455 159.32880451 -263.08492133 158.66318193 -261.625 158 C-260.81289063 157.62875 -260.00078125 157.2575 -259.1640625 156.875 C-257 156 -257 156 -255 156 C-256.08148167 154.74839762 -257.16527922 153.49879619 -258.25 152.25 C-258.85328125 151.55390625 -259.4565625 150.8578125 -260.078125 150.140625 C-261.9630086 147.95251578 -261.9630086 147.95251578 -264.203125 146.0859375 C-267.20172907 142.6049493 -266.53064405 139.29125722 -266.3828125 134.87109375 C-265.64490147 127.40915674 -263.91294661 120.23849551 -262 113 C-261.79632813 112.22269531 -261.59265625 111.44539063 -261.3828125 110.64453125 C-254.08264975 83.38157776 -242.74757998 55.50856496 -227 32 C-197.37816224 36.12318621 -164.81842436 45.32511791 -143 67 C-142.53851563 66.48050781 -142.07703125 65.96101563 -141.6015625 65.42578125 C-133.61583286 56.88767901 -126.37668033 53.99131018 -114.90625 52.50390625 C-110.07070694 51.66548548 -107.39551441 49.3048966 -103.89453125 46.03125 C-103.12496094 45.3196875 -102.35539063 44.608125 -101.5625 43.875 C-100.86253906 43.19179688 -100.16257813 42.50859375 -99.44140625 41.8046875 C-92.72078323 36.83680297 -84.88651344 37.7430786 -77.00488281 38.68457031 C-71.52283176 39.54706544 -66.27311271 41.31035107 -61 43 C-59.66853548 43.34072149 -58.33553067 43.6755825 -57 44 C-56.2265625 43.0821875 -55.453125 42.164375 -54.65625 41.21875 C-42.23721904 26.5484445 -28.97650294 14.72509588 -13 4 C-11.90365234 3.22269531 -11.90365234 3.22269531 -10.78515625 2.4296875 C-10.09292969 1.95789063 -9.40070313 1.48609375 -8.6875 1 C-8.09324219 0.5875 -7.49898438 0.175 -6.88671875 -0.25 C-4.10642069 -1.35521165 -2.82198715 -1.01460091 0 0 Z " fill="#070707" transform="translate(273,2)"/>
<path d="M0 0 C0.721875 0.9075 1.44375 1.815 2.1875 2.75 C5.73518494 7.20035034 9.97279891 9.6171481 15.65625 10.3359375 C17.09484375 10.47902344 17.09484375 10.47902344 18.5625 10.625 C25.03070471 11.51884738 29.0349703 14.40782296 34.20996094 18.10595703 C49.81461769 29.08332775 68.56043044 32.18467156 87.28515625 29.53515625 C94.11040027 27.8754926 99.98434425 24.54361379 106 21 C106.99 20.505 106.99 20.505 108 20 C107.67 20.78375 107.34 21.5675 107 22.375 C105.32499834 28.44688102 104.95297005 34.36703701 107.5 40.25 C112.32858691 48.65343546 122.15791989 52.75722097 131.125 55.25 C135.98563844 56.19076873 139.92971433 56.6740465 144.6875 55.125 C147.2188119 52.79892961 147.7299379 51.42911756 148.875 48.25 C152.26707572 39.04866074 159.03541845 35.06876231 167.23046875 30.1875 C170 29 170 29 172.19921875 28.94921875 C175.03442474 30.60360142 175.509791 32.77985101 176.625 35.8125 C177.02976562 36.87082031 177.43453125 37.92914063 177.8515625 39.01953125 C181.04501758 49.17869343 181.40635853 59.61793217 181.375 70.1875 C181.37445618 70.88320099 181.37391235 71.57890198 181.37335205 72.29568481 C181.32520378 85.81398551 179.82601441 98.76587917 177 112 C176.76442383 113.11149414 176.52884766 114.22298828 176.28613281 115.36816406 C175.54938845 118.77259715 174.78420092 122.16869979 174 125.5625 C173.7632959 126.59173584 173.5265918 127.62097168 173.28271484 128.68139648 C170.25133411 141.08745057 170.25133411 141.08745057 167 145 C164.38569718 146.53932096 161.76720157 147.14352182 158.8125 147.75 C158.01005859 147.94207031 157.20761719 148.13414062 156.38085938 148.33203125 C154.72154147 148.72567933 153.05881735 149.10523288 151.39306641 149.47070312 C149.2333865 149.94837972 147.09217507 150.4685778 144.94921875 151.015625 C113.06627847 159.05567081 82.7003589 161.34742127 50 161 C51.78017093 156.43643631 54.01442299 152.34590808 56.46484375 148.109375 C58.39962796 144.19057543 59.70607206 140.16682801 61 136 C60.31373535 135.3294458 59.6274707 134.6588916 58.92041016 133.96801758 C56.3670075 131.46907218 53.82367488 128.96008253 51.28320312 126.44799805 C50.18402147 125.36386703 49.08215757 124.28244832 47.97753906 123.20385742 C46.38667738 121.64954256 44.80584027 120.08560425 43.2265625 118.51953125 C42.73378815 118.04224075 42.24101379 117.56495026 41.73330688 117.07319641 C38.91097985 114.25225865 37.19292961 111.81798031 36 108 C42.7373826 103.30424849 50.11211532 103.85716104 58 104 C58 103.34 58 102.68 58 102 C56.02 101.505 56.02 101.505 54 101 C53.36980306 91.82713348 53.36980306 91.82713348 56 88.375 C56.66 87.92125 57.32 87.4675 58 87 C57.34 86.67 56.68 86.34 56 86 C55.97311849 84.35425434 55.95365877 82.70838587 55.9375 81.0625 C55.92589844 80.14597656 55.91429687 79.22945313 55.90234375 78.28515625 C56 76 56 76 57 75 C65.19402985 74.73134328 65.19402985 74.73134328 69 76 C69.66 73.69 70.32 71.38 71 69 C66.91616561 69.47495798 62.83303159 69.95569331 58.75 70.4375 C57.59113281 70.57220703 56.43226563 70.70691406 55.23828125 70.84570312 C54.12324219 70.97783203 53.00820312 71.10996094 51.859375 71.24609375 C50.83295898 71.36654053 49.80654297 71.4869873 48.74902344 71.61108398 C46.43040802 71.93910835 44.26131792 72.41280695 42 73 C40.58465222 73.06456879 39.16662311 73.08611039 37.75 73.0625 C35.89375 73.0315625 35.89375 73.0315625 34 73 C33.67 75.97 33.34 78.94 33 82 C33.59167969 81.6390625 34.18335938 81.278125 34.79296875 80.90625 C35.97826172 80.21015625 35.97826172 80.21015625 37.1875 79.5 C37.96480469 79.0359375 38.74210937 78.571875 39.54296875 78.09375 C42.24103386 76.89270353 44.0806982 76.79258957 47 77 C47.22893297 80.03336186 47.36475845 82.97465051 47 86 C45 88.0625 45 88.0625 43 89 C43.66 89.33 44.32 89.66 45 90 C45.31139647 99.18619583 45.31139647 99.18619583 43 103 C40.921875 103.62890625 40.921875 103.62890625 39 104 C30.67014044 95.25364747 25.20837809 84.54381423 21.203125 73.23046875 C20.23183639 70.80584509 20.23183639 70.80584509 17.92480469 70.3605957 C17.28961914 70.24159912 16.65443359 70.12260254 16 70 C16.15146484 70.59014893 16.30292969 71.18029785 16.45898438 71.78833008 C17.14302079 74.46212319 17.82156848 77.1372795 18.5 79.8125 C18.85771484 81.2056543 18.85771484 81.2056543 19.22265625 82.62695312 C19.44824219 83.51962891 19.67382812 84.41230469 19.90625 85.33203125 C20.11572266 86.15421143 20.32519531 86.9763916 20.54101562 87.82348633 C21 90 21 90 21 93 C14.38019076 95.48330041 7.72617364 97.82027772 1 100 C0.26346191 100.23895996 -0.47307617 100.47791992 -1.23193359 100.72412109 C-15.87817563 105.21063873 -31.2500613 104.43915891 -46.40234375 104.23828125 C-47.10886581 104.23069794 -47.81538788 104.22311462 -48.5433197 104.21530151 C-51.82819423 104.15237817 -54.85612365 103.99998116 -58 103 C-59.18213544 73.085406 -48.85374484 46.42975321 -29.4140625 23.58984375 C-22.83231061 16.52883808 -15.58012457 10.2030723 -7.83984375 4.4375 C-5.96233603 3.0501478 -5.96233603 3.0501478 -4.44140625 1.3125 C-3 0 -3 0 0 0 Z " fill="#003364" transform="translate(101,218)"/>
<path d="M0 0 C15.19144626 5.67261925 25.46957309 14.44695867 32.76171875 29.03125 C33.16802509 36.14633542 33.19615987 43.09039725 31.19921875 49.96875 C30.39975973 53.73762822 30.14260467 56.83402278 31.94140625 60.3125 C32.78058594 61.41078125 32.78058594 61.41078125 33.63671875 62.53125 C34.59384766 63.82289062 34.59384766 63.82289062 35.5703125 65.140625 C36.29347656 66.09453125 37.01664063 67.0484375 37.76171875 68.03125 C55.76171875 92.28856959 55.76171875 92.28856959 55.76171875 99.03125 C53.13818357 100.03524524 50.5130408 101.03459445 47.88671875 102.03125 C47.14035156 102.31742187 46.39398438 102.60359375 45.625 102.8984375 C39.98828125 105.03125 39.98828125 105.03125 37.76171875 105.03125 C36.99859375 104.04125 36.23546875 103.05125 35.44921875 102.03125 C24.5451345 89.02009633 5.67999334 84.4058944 -10.453125 82.8125 C-22.58064385 82.27048798 -34.92241359 85.65914885 -44.42578125 93.15625 C-53.19675482 101.18625724 -55.36924782 112.66520752 -56.23828125 124.03125 C-52.88860859 121.06780794 -51.49792778 118.60907401 -50.05078125 114.40625 C-46.40653254 105.27891148 -40.29787037 98.25681148 -31.40625 93.92578125 C-16.9571504 87.96390051 -2.21673259 91.38610619 11.76171875 97.03125 C11.76171875 97.36125 11.76171875 97.69125 11.76171875 98.03125 C10.02148438 98.14339844 10.02148438 98.14339844 8.24609375 98.2578125 C-1.72543978 99.04171791 -9.64903264 100.51356117 -18.23828125 106.03125 C-19.35203125 106.7325 -20.46578125 107.43375 -21.61328125 108.15625 C-29.08267976 116.3370198 -31.44479386 126.39618442 -33.23828125 137.03125 C-30.20058799 136.381497 -30.20058799 136.381497 -29.24267578 134.3605957 C-28.95505371 133.64991943 -28.66743164 132.93924316 -28.37109375 132.20703125 C-28.04238281 131.42521484 -27.71367187 130.64339844 -27.375 129.83789062 C-27.04113281 129.01482422 -26.70726562 128.19175781 -26.36328125 127.34375 C-22.43484838 117.66241446 -18.53055407 111.73200205 -8.73828125 107.171875 C6.02434691 102.36083993 22.20065217 108.03247231 35.76171875 114.03125 C35.76171875 114.36125 35.76171875 114.69125 35.76171875 115.03125 C34.69953125 115.04542969 33.63734375 115.05960937 32.54296875 115.07421875 C22.83697252 115.34497704 16.52068985 116.14008526 9.51171875 123.34375 C5.75091577 129.11926887 3.33788516 134.11725308 2.76171875 141.03125 C6.97986926 138.86399336 8.96913041 136.62225319 11.51171875 132.65625 C15.67654405 126.75673199 19.67148518 123.18944846 26.8046875 121.56640625 C36.38471497 120.82948106 47.91976367 125.86703568 55.76171875 131.03125 C55.76171875 131.69125 55.76171875 132.35125 55.76171875 133.03125 C55.10171875 133.03125 54.44171875 133.03125 53.76171875 133.03125 C60.51834638 140.81257945 72.95684906 140.45384307 82.66845703 141.29736328 C89.97725037 141.97669081 89.97725037 141.97669081 92.76171875 144.03125 C93.9921875 145.87109375 93.9921875 145.87109375 94.94921875 147.96875 C95.43455078 149.00322266 95.43455078 149.00322266 95.9296875 150.05859375 C98.16941475 155.3687452 98.36242319 160.33290091 97.76171875 166.03125 C95.45367024 170.21993064 93.25951357 171.6748654 88.76171875 173.03125 C85.36924709 173.3177953 81.97714615 173.34755315 78.57421875 173.40625 C70.90984885 173.66558306 64.52642446 174.12662207 57.76171875 178.03125 C56.91609375 178.47726563 56.07046875 178.92328125 55.19921875 179.3828125 C45.46432067 184.80074685 39.92539942 191.89990456 33.97265625 201.140625 C30.73216207 205.3773135 28.18023909 206.79870568 22.94921875 207.65625 C17.45678832 207.45897934 14.35927775 203.81982983 10.76171875 200.03125 C9.93671875 199.226875 9.11171875 198.4225 8.26171875 197.59375 C6.13821225 193.96609306 5.85823447 191.04901721 6.76171875 187.03125 C8.46667615 183.18341805 10.59935236 179.63682472 12.76171875 176.03125 C13.8549045 174.0783994 14.93856251 172.12017878 16.01171875 170.15625 C16.49125 169.29257813 16.97078125 168.42890625 17.46484375 167.5390625 C19.96954614 162.69563198 21.12274087 158.46256202 21.76171875 153.03125 C16.82020571 155.43141348 14.71840631 158.55398027 11.76171875 163.03125 C11.43171875 162.37125 11.10171875 161.71125 10.76171875 161.03125 C10.12371338 161.05219727 9.48570801 161.07314453 8.82836914 161.09472656 C-12.72932755 161.70640225 -12.72932755 161.70640225 -22.92578125 159.28125 C-23.6005249 159.12430664 -24.27526855 158.96736328 -24.97045898 158.80566406 C-29.17021521 157.68371919 -32.12109798 156.05903031 -35.23828125 153.03125 C-35.23828125 152.37125 -35.23828125 151.71125 -35.23828125 151.03125 C-36.39328125 151.155 -37.54828125 151.27875 -38.73828125 151.40625 C-44.22739454 151.39653476 -47.41817221 148.74501767 -51.23828125 145.03125 C-54.26474095 141.6753276 -56.24880863 138.55122671 -57.36328125 134.15625 C-57.65203125 133.125 -57.94078125 132.09375 -58.23828125 131.03125 C-67.54978189 127.92741645 -77.97628359 129.55474754 -86.6875 133.546875 C-91.0604973 136.09165138 -94.39292753 138.72041045 -96.98828125 143.09375 C-97.395625 143.76535156 -97.80296875 144.43695313 -98.22265625 145.12890625 C-100.38828617 149.18529768 -100.76792669 152.49143195 -100.23828125 157.03125 C-98.5000469 159.6411354 -96.47515638 161.84097644 -94.23828125 164.03125 C-94.73328125 165.02125 -94.73328125 165.02125 -95.23828125 166.03125 C-104.30243711 159.95977268 -104.30243711 159.95977268 -106.23828125 154.03125 C-107.2096777 145.45058132 -103.85359813 137.98554669 -98.9609375 131.109375 C-94.00072949 125.125632 -89.14612699 122.45839039 -81.4375 121.55078125 C-78.86730159 120.94361182 -77.90503751 120.03243632 -76.23828125 118.03125 C-79.42652693 116.43712716 -82.86724787 116.92950265 -86.36328125 116.96875 C-87.49443359 116.97551758 -87.49443359 116.97551758 -88.6484375 116.98242188 C-90.51175252 116.99421501 -92.3750268 117.01215058 -94.23828125 117.03125 C-92.08027638 100.58155249 -84.57550997 86.23442619 -77.00390625 71.65429688 C-74.84605347 67.62073746 -74.84605347 67.62073746 -74.23828125 63.15625 C-75.1262228 60.15993097 -75.1262228 60.15993097 -76.2109375 57.9296875 C-79.71903964 50.20934803 -81.36850183 42.20442471 -78.51611328 33.93847656 C-74.69756823 24.80798482 -69.52835437 14.43181095 -60.23828125 10.03125 C-56.72881746 9.67340541 -53.23025586 9.52180234 -49.70703125 9.3515625 C-44.08736624 8.83262947 -39.45440255 7.17826149 -35.359375 3.2109375 C-26.33959367 -5.50877283 -11.26188905 -3.39270298 0 0 Z " fill="#DFDEDD" transform="translate(210.23828125,55.96875)"/>
<path d="M0 0 C1.33569522 10.38874057 -2.32050448 18.81321112 -8.49316406 26.97412109 C-10.61182297 29.61697763 -12.74711605 32.23183849 -14.99902344 34.76269531 C-18.53516689 38.85610416 -19.73636404 41.56771177 -20 47 C-19.01 47.33 -18.02 47.66 -17 48 C-17.11069824 48.71430176 -17.22139648 49.42860352 -17.33544922 50.16455078 C-17.84947203 53.48457119 -18.36223943 56.80478442 -18.875 60.125 C-19.04902344 61.24777344 -19.22304687 62.37054688 -19.40234375 63.52734375 C-19.57636719 64.65527344 -19.75039062 65.78320312 -19.9296875 66.9453125 C-20.16534424 68.46922607 -20.16534424 68.46922607 -20.40576172 70.02392578 C-20.53662674 70.89979843 -20.53662674 70.89979843 -20.6701355 71.79336548 C-20.93330831 73.55386475 -21.20288829 75.31340586 -21.47463989 77.07260132 C-22.71108733 85.3183375 -23.52379315 93.51804562 -24.0703125 101.8359375 C-24.15626678 103.0813028 -24.24222107 104.32666809 -24.33078003 105.60977173 C-24.60033817 109.53120311 -24.86279763 113.45307064 -25.125 117.375 C-25.30753998 120.05736411 -25.49164112 122.73962032 -25.67578125 125.421875 C-26.12259229 131.94756075 -26.56304411 138.47364725 -27 145 C-33.6 143.68 -40.2 142.36 -47 141 C-47.99 136.545 -47.99 136.545 -49 132 C-49.7927802 129.85134338 -50.64077508 127.72158028 -51.5625 125.625 C-52.81196526 122.75530828 -54.00998779 119.97003662 -55 117 C-57.90695583 115.29002598 -60.12856653 114.99081668 -63.5 114.75 C-67.63644358 116.22730128 -67.91908567 117.02008605 -69.8125 120.8125 C-70.55787255 122.53474306 -71.28789268 124.26373834 -72 126 C-72.65493763 127.33913365 -73.31731862 128.67479497 -74 130 C-74.39832031 129.30132812 -74.79664063 128.60265625 -75.20703125 127.8828125 C-75.73683594 126.97273438 -76.26664062 126.06265625 -76.8125 125.125 C-77.33457031 124.22007812 -77.85664063 123.31515625 -78.39453125 122.3828125 C-79.93733799 119.76726817 -79.93733799 119.76726817 -83 118 C-86.37050917 117.56972223 -88.24083618 117.50877635 -91.125 119.375 C-96.38402305 126.73763227 -97.84910853 135.18659426 -99 144 C-99.54527344 144.17015625 -100.09054688 144.3403125 -100.65234375 144.515625 C-105.65262191 146.122552 -110.4002224 147.99269732 -115.15234375 150.23046875 C-117 151 -117 151 -119 151 C-113.9930448 115.08647586 -97.08958921 78.13438382 -77 48 C-84.18592091 51.28052911 -91.42698828 57.85397656 -95 65 C-95.51304687 64.82984375 -96.02609375 64.6596875 -96.5546875 64.484375 C-101.54074401 62.90629651 -106.51561957 61.65829363 -111.63525391 60.61352539 C-127.87770026 57.25804995 -140.19989964 49.82252961 -150 36 C-151.40663903 33.36746681 -152.71996324 30.69608254 -154 28 C-153.20734741 27.6757605 -153.20734741 27.6757605 -152.39868164 27.3449707 C-149.9508999 26.33985583 -147.50672725 25.32622642 -145.0625 24.3125 C-143.81629883 23.80299805 -143.81629883 23.80299805 -142.54492188 23.28320312 C-141.71669922 22.93837891 -140.88847656 22.59355469 -140.03515625 22.23828125 C-139.18179688 21.88306396 -138.3284375 21.52784668 -137.44921875 21.16186523 C-135.00840472 20.08804623 -135.00840472 20.08804623 -133.03515625 18.62133789 C-125.82551472 13.5708338 -117.97738174 14.49622137 -109.54351807 14.7387085 C-105.02456839 14.86366927 -100.5047361 14.8932311 -95.984375 14.93359375 C-95.10133698 14.94332214 -94.21829895 14.95305054 -93.3085022 14.96307373 C-63.97328279 15.24329034 -34.11843594 9.33588305 -6.20947266 0.54736328 C-4 0 -4 0 0 0 Z " fill="#E0DFDE" transform="translate(260,379)"/>
<path d="M0 0 C0.95696777 0.13116211 1.91393555 0.26232422 2.89990234 0.39746094 C3.61065918 0.47448242 4.32141602 0.55150391 5.05371094 0.63085938 C21.69615009 2.91400083 39.02467725 11.21949092 52.89990234 20.39746094 C52.68333984 21.15929687 52.46677734 21.92113281 52.24365234 22.70605469 C49.71979176 32.06537101 48.09021292 39.12834456 52.92724609 47.86621094 C53.81249272 49.38263014 53.81249272 49.38263014 54.89990234 50.39746094 C54.50280761 55.43106164 53.32570132 59.08506424 50.91552734 63.49511719 C50.30966797 64.62755859 49.70380859 65.76 49.07958984 66.92675781 C48.43752446 68.10512705 47.79429181 69.28286101 47.14990234 70.45996094 C37.24322651 88.07711829 37.24322651 88.07711829 34.89990234 107.70996094 C35.23021593 114.78317587 34.55110082 119.71635423 29.89990234 125.39746094 C26.2001782 123.11311169 22.54604279 120.76619494 18.89990234 118.39746094 C17.94664063 117.84251953 17.94664063 117.84251953 16.97412109 117.27636719 C11.33014226 113.52829855 10.35589308 106.5721853 8.89990234 100.39746094 C8.62847412 99.33785156 8.62847412 99.33785156 8.3515625 98.25683594 C6.60374045 90.76572927 6.67234711 83.43254801 6.77490234 75.77246094 C6.78392578 74.48210937 6.79294922 73.19175781 6.80224609 71.86230469 C6.82561755 68.70715845 6.85838143 65.55241168 6.89990234 62.39746094 C5.15889083 67.58143434 3.46180793 72.77541407 1.80615234 77.98730469 C-2.92201677 92.57942987 -7.98107655 105.89064707 -17.10009766 118.39746094 C-18.10943359 119.81478516 -18.10943359 119.81478516 -19.13916016 121.26074219 C-21.61626433 124.41986843 -23.21151228 126.09496379 -27.03759766 127.39746094 C-34.53511945 124.94929056 -39.63281602 117.18755414 -43.10009766 110.39746094 C-44.72858508 106.73993071 -46.10009766 103.46031382 -46.10009766 99.39746094 C-43.76416016 97.57324219 -43.76416016 97.57324219 -40.72509766 95.70996094 C-39.22849609 94.77603516 -39.22849609 94.77603516 -37.70166016 93.82324219 C-35.10009766 92.39746094 -35.10009766 92.39746094 -33.10009766 92.39746094 C-35.6543151 87.70761019 -39.060203 83.9928889 -42.86767578 80.29785156 C-44.90738389 78.06275778 -46.10665344 76.19709435 -46.08154297 73.13427734 C-44.96275454 66.89036072 -42.65497872 60.98419656 -40.22509766 55.14746094 C-39.83217529 54.2007251 -39.43925293 53.25398926 -39.03442383 52.27856445 C-34.46721416 41.55381701 -28.9952085 31.44104799 -23.10009766 21.39746094 C-22.53597168 20.40536621 -21.9718457 19.41327148 -21.390625 18.39111328 C-19.67536294 15.40294369 -17.89929117 12.46070141 -16.10009766 9.52246094 C-15.57971924 8.60585693 -15.05934082 7.68925293 -14.52319336 6.74487305 C-10.50342924 0.43767608 -7.41015646 -0.60091684 0 0 Z " fill="#E0DFDE" transform="translate(68.10009765625,66.6025390625)"/>
<path d="M0 0 C3.9432649 2.1514076 7.16116663 4.49931915 10 8 C10.74497277 12.22346765 9.93895369 15.85511603 9 20 C8.6431525 22.08287582 8.28882521 24.16618561 7.9375 26.25 C7.6308975 27.83448591 7.32069766 29.4183067 7 31 C7.97839844 30.72285156 8.95679688 30.44570312 9.96484375 30.16015625 C11.28896289 29.79391053 12.61318743 29.42804569 13.9375 29.0625 C14.57751953 28.88009766 15.21753906 28.69769531 15.87695312 28.50976562 C17.90890613 27.95375858 19.9452193 27.46443997 22 27 C22.75361816 26.81711426 23.50723633 26.63422852 24.28369141 26.44580078 C29.88380733 25.39526205 29.88380733 25.39526205 32.78491211 26.96704102 C34.51990598 28.45697778 35.99954285 30.02437937 37.5 31.75 C38.05333008 32.3469165 38.60666016 32.94383301 39.17675781 33.55883789 C40.81595249 35.34715838 42.41148194 37.16666208 44 39 C44.83015625 39.93199219 45.6603125 40.86398438 46.515625 41.82421875 C60.57501092 58.26780124 69.7528714 75.77485133 69.3046875 97.91015625 C68.91424628 101.8696307 67.96326854 104.56428005 66 108 C65.01 108 64.02 108 63 108 C62.34 106.35 61.68 104.7 61 103 C60.21238281 103.18820313 59.42476563 103.37640625 58.61328125 103.5703125 C53.21975897 104.47667956 48.99811069 104.9687045 44.3125 101.875 C41.04864375 99.42968395 38.03166001 96.72436618 35 94 C34.34 93.67 33.68 93.34 33 93 C32.71278076 93.50450684 32.42556152 94.00901367 32.12963867 94.52880859 C30.82273155 96.81504024 29.50527252 99.09501527 28.1875 101.375 C27.73568359 102.1690625 27.28386719 102.963125 26.81835938 103.78125 C26.37685547 104.54179687 25.93535156 105.30234375 25.48046875 106.0859375 C25.07723389 106.7876709 24.67399902 107.4894043 24.25854492 108.21240234 C22.11577192 111.25592978 19.53704442 112.28470711 16.0625 113.125 C15.39347656 113.29257813 14.72445312 113.46015625 14.03515625 113.6328125 C12 114 12 114 8 114 C7.50113281 112.98164063 7.00226563 111.96328125 6.48828125 110.9140625 C1.42941319 100.85394993 -4.43379973 91.83695799 -11.1796875 82.828125 C-17.04987816 74.93105899 -17.04987816 74.93105899 -16.8125 70.5 C-16 67 -16 67 -14.9375 64.5625 C-12.31248045 57.38744658 -14.45833687 51.70282452 -17.453125 45.0234375 C-21.66433264 36.79244076 -27.25894082 30.26830958 -34 24 C-32.49000582 20.23766813 -30.33607897 18.37357951 -27.1875 15.875 C-26.21039063 15.09769531 -25.23328125 14.32039063 -24.2265625 13.51953125 C-23.1514505 12.67916421 -22.0759137 11.83934039 -21 11 C-20.43120117 10.55188965 -19.86240234 10.1037793 -19.27636719 9.64208984 C-17.54258115 8.27679371 -15.80382754 6.91816107 -14.0625 5.5625 C-13.51940186 5.13759277 -12.97630371 4.71268555 -12.41674805 4.27490234 C-4.52066371 -1.80656918 -4.52066371 -1.80656918 0 0 Z " fill="#E0DFDE" transform="translate(271,36)"/>
<path d="M0 0 C-1.54517956 3.51177172 -3.71002093 6.32619549 -6.07421875 9.31640625 C-6.37972656 9.87199219 -6.68523437 10.42757813 -7 11 C-6.67 11.99 -6.34 12.98 -6 14 C-5.49353378 18.4336551 -5.40366526 21.90274408 -7.5625 25.875 C-13.31932363 30.89376932 -18.24202267 31.32564928 -25.64453125 31.203125 C-28 31 -28 31 -30 30 C-30.495 31.485 -30.495 31.485 -31 33 C-31.8184993 33.1115593 -31.8184993 33.1115593 -32.65353394 33.22537231 C-39.72763383 34.18988518 -46.80139408 35.15687138 -53.875 36.125 C-55.02047302 36.28173187 -56.16594604 36.43846375 -57.34613037 36.59994507 C-69.61527093 38.28013446 -81.88263175 39.97057161 -94.140625 41.73046875 C-95.55222397 41.93313354 -95.55222397 41.93313354 -96.99234009 42.13989258 C-101.38073566 42.77107151 -105.76855523 43.40602077 -110.15576172 44.04541016 C-120.41999138 45.53406889 -130.6930975 46.84280022 -141 48 C-141 47.34 -141 46.68 -141 46 C-134.54190442 41.10750335 -126.7129751 41.86032842 -119 42 C-119 41.34 -119 40.68 -119 40 C-120.32 39.67 -121.64 39.34 -123 39 C-123.63019694 29.82713348 -123.63019694 29.82713348 -121 26.375 C-120.34 25.92125 -119.68 25.4675 -119 25 C-119.66 24.67 -120.32 24.34 -121 24 C-121.02688151 22.35425434 -121.04634123 20.70838587 -121.0625 19.0625 C-121.07410156 18.14597656 -121.08570313 17.22945313 -121.09765625 16.28515625 C-121 14 -121 14 -120 13 C-111.80597015 12.73134328 -111.80597015 12.73134328 -108 14 C-107.34 11.69 -106.68 9.38 -106 7 C-110.08383439 7.47495798 -114.16696841 7.95569331 -118.25 8.4375 C-119.40886719 8.57220703 -120.56773437 8.70691406 -121.76171875 8.84570312 C-122.87675781 8.97783203 -123.99179688 9.10996094 -125.140625 9.24609375 C-126.68024902 9.42676392 -126.68024902 9.42676392 -128.25097656 9.61108398 C-130.56959198 9.93910835 -132.73868208 10.41280695 -135 11 C-136.41534778 11.06456879 -137.83337689 11.08611039 -139.25 11.0625 C-141.10625 11.0315625 -141.10625 11.0315625 -143 11 C-143.33 13.97 -143.66 16.94 -144 20 C-143.40832031 19.6390625 -142.81664062 19.278125 -142.20703125 18.90625 C-141.41683594 18.4421875 -140.62664062 17.978125 -139.8125 17.5 C-139.03519531 17.0359375 -138.25789062 16.571875 -137.45703125 16.09375 C-134.75896614 14.89270353 -132.9193018 14.79258957 -130 15 C-129.77106703 18.03336186 -129.63524155 20.97465051 -130 24 C-132 26.0625 -132 26.0625 -134 27 C-133.34 27.33 -132.68 27.66 -132 28 C-131.68860353 37.18619583 -131.68860353 37.18619583 -134 41 C-136.125 41.8125 -136.125 41.8125 -138 42 C-138 40.68 -138 39.36 -138 38 C-137.34 38 -136.68 38 -136 38 C-136.33 35.69 -136.66 33.38 -137 31 C-139.64 30.01 -142.28 29.02 -145 28 C-137.28571429 22 -137.28571429 22 -134 22 C-134.33 21.34 -134.66 20.68 -135 20 C-141.435 22.97 -141.435 22.97 -148 26 C-148.23268915 19.71739294 -147.40454548 14.11980533 -146 8 C-136.62843432 6.26816414 -127.2439745 4.68451684 -117.8125 3.3125 C-116.92860596 3.18125732 -116.04471191 3.05001465 -115.1340332 2.91479492 C-110.71545773 2.28453605 -106.47752785 1.84610788 -102 2 C-101.875 8.625 -101.875 8.625 -103 12 C-76.18048011 8.68449232 -76.18048011 8.68449232 -49.4375 4.8125 C-48.39078125 4.6487085 -47.3440625 4.48491699 -46.265625 4.31616211 C-42.80499213 3.77050332 -39.34504846 3.22142763 -35.88818359 2.65234375 C-24.0297979 0.70217467 -12.01417597 0 0 0 Z " fill="#DEDAD6" transform="translate(278,280)"/>
<path d="M0 0 C1.31129883 0.00161133 2.62259766 0.00322266 3.97363281 0.00488281 C18.44101998 0.18684009 37.31683957 1.7340383 48.3125 12.375 C49.95878913 15.66757827 49.85077018 17.7267243 49.3125 21.375 C39.94495005 33.69934645 20.29479791 37.29147848 5.88256836 39.49682617 C-14.70783702 42.27964206 -38.51867178 41.85993288 -55.8125 29.0625 C-58.00615443 25.91826198 -58.42991003 24.06633903 -58.16796875 20.29296875 C-56.78523175 14.7732625 -50.29170426 11.22489914 -45.6875 8.375 C-42.87548017 7.09039761 -40.00699361 6.12205667 -37.0625 5.1875 C-36.34449219 4.94064453 -35.62648437 4.69378906 -34.88671875 4.43945312 C-23.50892433 0.71635286 -11.89960251 -0.01533059 0 0 Z " fill="#85817C" transform="translate(187.6875,529.625)"/>
<path d="M0 0 C2.38359713 2.49092609 3.75086988 5.00165087 5.35546875 8.046875 C11.54463847 19.16091848 25.40733549 25.00569188 37.1652832 28.3996582 C42.59956297 29.55054046 48.0882255 29.57948043 53.625 29.6875 C54.81996094 29.72166016 56.01492187 29.75582031 57.24609375 29.79101562 C60.16396851 29.87271612 63.08157218 29.94211753 66 30 C63.15432123 37.56702427 57.30693455 41.71590255 50.15234375 45.17578125 C34.34779786 51.22797578 16.62896371 48.97125613 1.390625 42.45703125 C-6.25122382 38.96489831 -12.78610204 34.63703773 -19 29 C-19.93585938 28.16855469 -20.87171875 27.33710938 -21.8359375 26.48046875 C-28.89305105 19.88789909 -28.89305105 19.88789909 -29.375 15.88671875 C-28.70153155 10.70241473 -25.80672872 7.77165356 -22.125 4.25 C-15.71866357 -0.36256223 -7.69540717 -1.90212699 0 0 Z " fill="#FCFCFC" transform="translate(145,193)"/>
<path d="M0 0 C15.12182633 -0.64716797 28.89672367 0.19249214 43.50683594 4.30322266 C45.25564846 4.79197226 47.0156641 5.2415277 48.78222656 5.66162109 C55.64198469 7.40789775 55.64198469 7.40789775 57.625 10.6875 C57.74875 11.450625 57.8725 12.21375 58 13 C57.09378906 13.10957031 56.18757813 13.21914062 55.25390625 13.33203125 C43.22592687 14.76789702 43.22592687 14.76789702 32.375 19.75 C30.7012526 22.04937974 30.7012526 22.04937974 31 25.4375 C32.35267655 30.25641021 33.98666292 32.73992869 38.265625 35.41796875 C40.48733591 36.6650612 42.72335004 37.85681038 45 39 C42.05378617 40.59586583 39.23772669 41.53595497 36 42.375 C30.64806523 43.94474901 30.64806523 43.94474901 27 48 C26.42937929 51.92301736 26.52522688 54.133023 28.4375 57.625 C32.85705683 61.72117463 38.0671098 64.75948659 44 66 C43.3125 67.9375 43.3125 67.9375 42 70 C36.97765637 72.04183913 32.8418119 69.76436855 28.125 67.875 C26.43176188 67.22195238 24.73773906 66.57093597 23.04296875 65.921875 C21.77718994 65.43364258 21.77718994 65.43364258 20.48583984 64.93554688 C15.6460843 63.11410283 10.72539549 61.54367001 5.80859375 59.9453125 C3 59 3 59 1 58 C1.2165625 56.93265625 1.433125 55.8653125 1.65625 54.765625 C5.30324234 35.74592222 4.48109895 18.80461165 0 0 Z " fill="#DEDDDC" transform="translate(340,157)"/>
<path d="M0 0 C-1.54517956 3.51177172 -3.71002093 6.32619549 -6.07421875 9.31640625 C-6.37972656 9.87199219 -6.68523437 10.42757813 -7 11 C-6.67 11.99 -6.34 12.98 -6 14 C-5.49353378 18.4336551 -5.40366526 21.90274408 -7.5625 25.875 C-13.31932363 30.89376932 -18.24202267 31.32564928 -25.64453125 31.203125 C-28 31 -28 31 -30 30 C-30.495 31.485 -30.495 31.485 -31 33 C-31.8184993 33.1115593 -31.8184993 33.1115593 -32.65353394 33.22537231 C-39.72763383 34.18988518 -46.80139408 35.15687138 -53.875 36.125 C-55.02047302 36.28173187 -56.16594604 36.43846375 -57.34613037 36.59994507 C-69.61527093 38.28013446 -81.88263175 39.97057161 -94.140625 41.73046875 C-95.55222397 41.93313354 -95.55222397 41.93313354 -96.99234009 42.13989258 C-101.38073566 42.77107151 -105.76855523 43.40602077 -110.15576172 44.04541016 C-120.41999138 45.53406889 -130.6930975 46.84280022 -141 48 C-141 47.34 -141 46.68 -141 46 C-134.54190442 41.10750335 -126.7129751 41.86032842 -119 42 C-119 41.34 -119 40.68 -119 40 C-120.32 39.67 -121.64 39.34 -123 39 C-123.63019694 29.82713348 -123.63019694 29.82713348 -121 26.375 C-120.34 25.92125 -119.68 25.4675 -119 25 C-119.66 24.67 -120.32 24.34 -121 24 C-121 22.02 -121 20.04 -121 18 C-120.34 18 -119.68 18 -119 18 C-119 17.01 -119 16.02 -119 15 C-116.69 15 -114.38 15 -112 15 C-112 15.99 -112 16.98 -112 18 C-110.948125 17.67 -109.89625 17.34 -108.8125 17 C-105.61126643 16.16033218 -103.2588992 15.80249096 -100 16 C-99.34 17.32 -98.68 18.64 -98 20 C-98 18.68 -98 17.36 -98 16 C-92.78556404 14.31438733 -88.02460865 13.61487302 -82.5625 13.375 C-81.83095703 13.33632813 -81.09941406 13.29765625 -80.34570312 13.2578125 C-78.56416468 13.16466016 -76.78211878 13.08129714 -75 13 C-75 14.65 -75 16.3 -75 18 C-77.97 17.67 -80.94 17.34 -84 17 C-83.505 21.455 -83.505 21.455 -83 26 C-83.66 26 -84.32 26 -85 26 C-85 28.97 -85 31.94 -85 35 C-82.0427809 36.47860955 -79.15863201 35.99985308 -75.9375 35.8125 C-75.20595703 35.77133057 -74.47441406 35.73016113 -73.72070312 35.68774414 C-65.67281771 35.13234762 -57.75655154 33.78290628 -49.82006836 32.37231445 C-43.77318242 31.3235464 -38.13813399 30.80178942 -32 31 C-32 30.01 -32 29.02 -32 28 C-30.91460937 28.04640625 -29.82921875 28.0928125 -28.7109375 28.140625 C-27.26565269 28.17816487 -25.82033789 28.21456264 -24.375 28.25 C-23.66214844 28.28351563 -22.94929688 28.31703125 -22.21484375 28.3515625 C-16.9902614 28.4474264 -14.19015522 27.37790974 -10 24 C-8.14209924 22.14209924 -8.82050293 19.57527841 -8.76953125 17.10546875 C-8.92323394 14.57480918 -8.92323394 14.57480918 -11 11 C-9.02 8.36 -7.04 5.72 -5 3 C-17.14144084 3.35141652 -29.00959688 4.85605223 -41.02026367 6.62792969 C-42.22400635 6.80356445 -43.42774902 6.97919922 -44.66796875 7.16015625 C-45.74328857 7.32136963 -46.8186084 7.48258301 -47.92651367 7.64868164 C-50.9805972 7.99778214 -53.92902749 8.06189736 -57 8 C-57 8.66 -57 9.32 -57 10 C-55.35 10.66 -53.7 11.32 -52 12 C-51.95745644 13.99954746 -51.95919217 16.00041636 -52 18 C-52.495 18.495 -52.495 18.495 -53 19 C-54.65 19 -56.3 19 -58 19 C-58.99 14.05 -58.99 14.05 -60 9 C-63.3 9.33 -66.6 9.66 -70 10 C-70.99 12.97 -71.98 15.94 -73 19 C-73.92538169 15.29847322 -74.08174162 14.36541838 -73 11 C-73.82725586 11.12117188 -74.65451172 11.24234375 -75.50683594 11.3671875 C-78.58528693 11.81672261 -81.6640944 12.26370819 -84.74316406 12.70898438 C-86.72749888 12.99673706 -88.71140887 13.28741437 -90.6953125 13.578125 C-91.94570312 13.75859375 -93.19609375 13.9390625 -94.484375 14.125 C-96.21252441 14.37636719 -96.21252441 14.37636719 -97.97558594 14.6328125 C-101 15 -101 15 -105 15 C-105.125 7.25 -105.125 7.25 -104 5 C-117.2 6.65 -130.4 8.3 -144 10 C-144.33 13.96 -144.66 17.92 -145 22 C-142.6178125 20.7625 -142.6178125 20.7625 -140.1875 19.5 C-135.375 17 -135.375 17 -132 17 C-131.75 19.8125 -131.75 19.8125 -132 23 C-133.8125 24.875 -133.8125 24.875 -136 26 C-136.99 26 -137.98 26 -139 26 C-139 26.66 -139 27.32 -139 28 C-137.02 28.33 -135.04 28.66 -133 29 C-133.33 32.3 -133.66 35.6 -134 39 C-135.65 39.66 -137.3 40.32 -139 41 C-138.67 40.01 -138.34 39.02 -138 38 C-137.34 38 -136.68 38 -136 38 C-136.33 35.69 -136.66 33.38 -137 31 C-139.64 30.01 -142.28 29.02 -145 28 C-137.28571429 22 -137.28571429 22 -134 22 C-134.33 21.34 -134.66 20.68 -135 20 C-141.435 22.97 -141.435 22.97 -148 26 C-148.23268915 19.71739294 -147.40454548 14.11980533 -146 8 C-136.62843432 6.26816414 -127.2439745 4.68451684 -117.8125 3.3125 C-116.92860596 3.18125732 -116.04471191 3.05001465 -115.1340332 2.91479492 C-110.71545773 2.28453605 -106.47752785 1.84610788 -102 2 C-101.875 8.625 -101.875 8.625 -103 12 C-76.18048011 8.68449232 -76.18048011 8.68449232 -49.4375 4.8125 C-48.39078125 4.6487085 -47.3440625 4.48491699 -46.265625 4.31616211 C-42.80499213 3.77050332 -39.34504846 3.22142763 -35.88818359 2.65234375 C-24.0297979 0.70217467 -12.01417597 0 0 0 Z " fill="#E4DBD2" transform="translate(278,280)"/>
<path d="M0 0 C2.2296476 1.53841469 3.1966391 2.89060247 4.55834961 5.22338867 C5.01918945 5.9974707 5.4800293 6.77155273 5.95483398 7.5690918 C6.4234082 8.37926758 6.89198242 9.18944336 7.37475586 10.02416992 C8.30834088 11.61294777 9.24451202 13.200209 10.18334961 14.78588867 C10.86264526 15.9386731 10.86264526 15.9386731 11.55566406 17.11474609 C12.88190812 19.24765777 14.31036638 21.23725941 15.82006836 23.24291992 C16.51874023 24.26385742 17.21741211 25.28479492 17.93725586 26.33666992 C17.26900342 29.67793214 16.3323462 30.94157958 13.93725586 33.33666992 C13.41776367 32.58901367 12.89827148 31.84135742 12.36303711 31.07104492 C11.6656543 30.08620117 10.96827148 29.10135742 10.24975586 28.08666992 C9.22301758 26.62487305 9.22301758 26.62487305 8.17553711 25.13354492 C5.51783787 21.81258043 2.75608842 19.2460862 -1.06274414 17.33666992 C-6.69593743 16.72485914 -6.69593743 16.72485914 -11.50024414 19.14916992 C-13.65641516 22.16780935 -14.1888539 24.73275541 -14.37915039 28.34838867 C-14.44199219 29.484375 -14.44199219 29.484375 -14.50610352 30.64331055 C-14.54541992 31.42899414 -14.58473633 32.21467773 -14.62524414 33.02416992 C-14.69001953 34.22009766 -14.69001953 34.22009766 -14.75610352 35.44018555 C-14.86201782 37.40548439 -14.96286965 39.37105489 -15.06274414 41.33666992 C-17.34649773 39.12881147 -19.3566053 36.78687983 -21.37524414 34.33666992 C-24.32151707 30.98273659 -26.70214418 28.69935741 -31.06274414 27.33666992 C-34.70100277 27.08255424 -34.70100277 27.08255424 -38.06274414 28.33666992 C-42.31447797 33.25973014 -43.20127197 37.86485609 -43.16040039 44.19995117 C-43.15556641 45.52929688 -43.15556641 45.52929688 -43.15063477 46.88549805 C-43.14225586 47.79750977 -43.13387695 48.70952148 -43.12524414 49.64916992 C-43.12073242 50.58051758 -43.1162207 51.51186523 -43.11157227 52.47143555 C-43.09983648 54.75991365 -43.08341777 57.048258 -43.06274414 59.33666992 C-44.71274414 59.33666992 -46.36274414 59.33666992 -48.06274414 59.33666992 C-65.56950458 24.10990692 -65.56950458 24.10990692 -65.06274414 14.33666992 C-64.05598633 14.31088867 -63.04922852 14.28510742 -62.01196289 14.25854492 C-42.66985278 13.56201464 -23.18244663 9.29816002 -5.68774414 0.83666992 C-2.06274414 -0.66333008 -2.06274414 -0.66333008 0 0 Z " fill="#DEDDDC" transform="translate(126.062744140625,334.663330078125)"/>
<path d="M0 0 C5.73755755 4.28740564 9.80138983 10.1636965 12 17 C11.625 19.30078125 11.625 19.30078125 11 21 C10.401875 20.154375 9.80375 19.30875 9.1875 18.4375 C1.68706402 9.47511463 -10.6068879 4.25160472 -22 3 C-40.86614804 1.80740767 -55.65674961 4.81601626 -70.3125 17.375 C-75.22406359 21.94676988 -78.8695965 26.6087895 -81 33 C-81.66 33 -82.32 33 -83 33 C-84.02966763 24.38130059 -81.71091359 18.19749891 -77 11 C-58.40453531 -12.12921608 -24.463104 -15.03240014 0 0 Z " fill="#0A0A09" transform="translate(228,128)"/>
<path d="M0 0 C-1.54517956 3.51177172 -3.71002093 6.32619549 -6.07421875 9.31640625 C-6.37972656 9.87199219 -6.68523437 10.42757813 -7 11 C-6.67 11.99 -6.34 12.98 -6 14 C-5.49353378 18.4336551 -5.40366526 21.90274408 -7.5625 25.875 C-13.31932363 30.89376932 -18.24202267 31.32564928 -25.64453125 31.203125 C-28 31 -28 31 -30 30 C-30.495 31.485 -30.495 31.485 -31 33 C-31.8184993 33.1115593 -31.8184993 33.1115593 -32.65353394 33.22537231 C-39.72763383 34.18988518 -46.80139408 35.15687138 -53.875 36.125 C-55.02047302 36.28173187 -56.16594604 36.43846375 -57.34613037 36.59994507 C-69.61527093 38.28013446 -81.88263175 39.97057161 -94.140625 41.73046875 C-95.55222397 41.93313354 -95.55222397 41.93313354 -96.99234009 42.13989258 C-101.38073566 42.77107151 -105.76855523 43.40602077 -110.15576172 44.04541016 C-120.41999138 45.53406889 -130.6930975 46.84280022 -141 48 C-141 47.34 -141 46.68 -141 46 C-135.50027426 41.83354111 -129.22201109 41.95068264 -122.59716797 41.8112793 C-108.6401495 41.46531726 -95.007276 39.21234912 -81.25531006 36.99862671 C-74.1375463 35.8535037 -67.00792506 34.79664175 -59.875 33.75 C-58.77397949 33.58717529 -57.67295898 33.42435059 -56.53857422 33.2565918 C-54.54521959 32.96183078 -52.55166532 32.6684149 -50.55786133 32.37670898 C-48.39276972 32.05784515 -46.22937948 31.72746159 -44.06640625 31.39453125 C-41.35192959 31.04528011 -38.79462495 30.89546731 -36.0625 30.9375 C-35.29035156 30.94652344 -34.51820313 30.95554687 -33.72265625 30.96484375 C-33.15417969 30.97644531 -32.58570313 30.98804688 -32 31 C-32 30.01 -32 29.02 -32 28 C-30.91460937 28.04640625 -29.82921875 28.0928125 -28.7109375 28.140625 C-27.26565269 28.17816487 -25.82033789 28.21456264 -24.375 28.25 C-23.66214844 28.28351563 -22.94929688 28.31703125 -22.21484375 28.3515625 C-16.9902614 28.4474264 -14.19015522 27.37790974 -10 24 C-8.14209924 22.14209924 -8.82050293 19.57527841 -8.76953125 17.10546875 C-8.92323394 14.57480918 -8.92323394 14.57480918 -11 11 C-9.02 8.36 -7.04 5.72 -5 3 C-17.14144084 3.35141652 -29.00959688 4.85605223 -41.02026367 6.62792969 C-42.22400635 6.80356445 -43.42774902 6.97919922 -44.66796875 7.16015625 C-45.74328857 7.32136963 -46.8186084 7.48258301 -47.92651367 7.64868164 C-50.9805972 7.99778214 -53.92902749 8.06189736 -57 8 C-57 8.66 -57 9.32 -57 10 C-55.35 10.66 -53.7 11.32 -52 12 C-51.95745644 13.99954746 -51.95919217 16.00041636 -52 18 C-52.495 18.495 -52.495 18.495 -53 19 C-54.65 19 -56.3 19 -58 19 C-58.99 14.05 -58.99 14.05 -60 9 C-63.3 9.33 -66.6 9.66 -70 10 C-70.99 12.97 -71.98 15.94 -73 19 C-73.92538169 15.29847322 -74.08174162 14.36541838 -73 11 C-73.82725586 11.12117188 -74.65451172 11.24234375 -75.50683594 11.3671875 C-78.58528693 11.81672261 -81.6640944 12.26370819 -84.74316406 12.70898438 C-86.72749888 12.99673706 -88.71140887 13.28741437 -90.6953125 13.578125 C-91.94570312 13.75859375 -93.19609375 13.9390625 -94.484375 14.125 C-96.21252441 14.37636719 -96.21252441 14.37636719 -97.97558594 14.6328125 C-101 15 -101 15 -105 15 C-105.125 7.25 -105.125 7.25 -104 5 C-117.2 6.65 -130.4 8.3 -144 10 C-144.33 13.96 -144.66 17.92 -145 22 C-142.6178125 20.7625 -142.6178125 20.7625 -140.1875 19.5 C-135.375 17 -135.375 17 -132 17 C-131.75 19.8125 -131.75 19.8125 -132 23 C-133.8125 24.875 -133.8125 24.875 -136 26 C-136.99 26 -137.98 26 -139 26 C-139 26.66 -139 27.32 -139 28 C-137.02 28.33 -135.04 28.66 -133 29 C-133.33 32.3 -133.66 35.6 -134 39 C-135.65 39.66 -137.3 40.32 -139 41 C-138.67 40.01 -138.34 39.02 -138 38 C-137.34 38 -136.68 38 -136 38 C-136.33 35.69 -136.66 33.38 -137 31 C-139.64 30.01 -142.28 29.02 -145 28 C-137.28571429 22 -137.28571429 22 -134 22 C-134.33 21.34 -134.66 20.68 -135 20 C-141.435 22.97 -141.435 22.97 -148 26 C-148.23268915 19.71739294 -147.40454548 14.11980533 -146 8 C-136.62843432 6.26816414 -127.2439745 4.68451684 -117.8125 3.3125 C-116.92860596 3.18125732 -116.04471191 3.05001465 -115.1340332 2.91479492 C-110.71545773 2.28453605 -106.47752785 1.84610788 -102 2 C-101.875 8.625 -101.875 8.625 -103 12 C-76.18048011 8.68449232 -76.18048011 8.68449232 -49.4375 4.8125 C-48.39078125 4.6487085 -47.3440625 4.48491699 -46.265625 4.31616211 C-42.80499213 3.77050332 -39.34504846 3.22142763 -35.88818359 2.65234375 C-24.0297979 0.70217467 -12.01417597 0 0 0 Z " fill="#E97B14" transform="translate(278,280)"/>
<path d="M0 0 C0.495 2.97 0.495 2.97 1 6 C-0.76936883 6.75344851 -2.5406031 7.50251617 -4.3125 8.25 C-5.79169922 8.87648438 -5.79169922 8.87648438 -7.30078125 9.515625 C-28.77164683 18.13117824 -57.27061818 26.11996567 -80 18 C-80 15.03 -80 12.06 -80 9 C-78.90872803 9.02618408 -77.81745605 9.05236816 -76.69311523 9.0793457 C-52.3493554 9.61187704 -29.08763043 10.06260969 -6.42578125 -0.1796875 C-3.76994832 -1.07779525 -2.58434408 -0.98047715 0 0 Z " fill="#ED7905" transform="translate(123,312)"/>
<path d="M0 0 C-0.66 0.99 -1.32 1.98 -2 3 C-2.1668107 5.18730703 -2.1668107 5.18730703 -2 7.5 C-1.80550934 11.14669996 -1.85485946 11.78228919 -4 15 C-4.45139459 17.0492094 -4.45139459 17.0492094 -4.625 19.1875 C-4.810625 21.0746875 -4.810625 21.0746875 -5 23 C-7.31 23.33 -9.62 23.66 -12 24 C-13.32 21.36 -14.64 18.72 -16 16 C-16.66 18.31 -17.32 20.62 -18 23 C-17.01 23.33 -16.02 23.66 -15 24 C-15 24.33 -15 24.66 -15 25 C-22.92 25.99 -30.84 26.98 -39 28 C-38.34 26.35 -37.68 24.7 -37 23 C-38.98 23 -40.96 23 -43 23 C-43 24.65 -43 26.3 -43 28 C-45.95664519 29.4783226 -48.74229737 29.06032783 -52 29 C-51.58427734 28.22076172 -51.58427734 28.22076172 -51.16015625 27.42578125 C-49.19266733 23.63783995 -47.53662611 20.29300887 -47 16 C-46.34 16 -45.68 16 -45 16 C-44.79503906 15.37351562 -44.59007812 14.74703125 -44.37890625 14.1015625 C-44.10949219 13.28429687 -43.84007812 12.46703125 -43.5625 11.625 C-43.29566406 10.81289063 -43.02882812 10.00078125 -42.75390625 9.1640625 C-42 7 -42 7 -41 5 C-38.36 5 -35.72 5 -33 5 C-32.79503906 5.62648438 -32.59007812 6.25296875 -32.37890625 6.8984375 C-32.10949219 7.71570313 -31.84007812 8.53296875 -31.5625 9.375 C-31.29566406 10.18710937 -31.02882812 10.99921875 -30.75390625 11.8359375 C-30.04820271 14.01031799 -30.04820271 14.01031799 -29 16 C-29 18 -29 20 -29 22 C-28.67 22.66 -28.34 23.32 -28 24 C-27.01 23.67 -26.02 23.34 -25 23 C-25.01160156 22.36191406 -25.02320313 21.72382813 -25.03515625 21.06640625 C-25.04417969 20.24011719 -25.05320313 19.41382813 -25.0625 18.5625 C-25.07410156 17.73878906 -25.08570313 16.91507812 -25.09765625 16.06640625 C-25 14 -25 14 -24 13 C-23.76924918 11.65252916 -23.58846937 10.29622435 -23.4375 8.9375 C-23.293125 7.638125 -23.14875 6.33875 -23 5 C-23.66 5 -24.32 5 -25 5 C-25 4.34 -25 3.68 -25 3 C-21.7 2.67 -18.4 2.34 -15 2 C-13.68 4.97 -12.36 7.94 -11 11 C-10.67 8.36 -10.34 5.72 -10 3 C-10.66 3 -11.32 3 -12 3 C-12 2.34 -12 1.68 -12 1 C-7.95858806 0.36605303 -4.0934693 -0.12404452 0 0 Z " fill="#0D3C6C" transform="translate(250,286)"/>
<path d="M0 0 C6.92821301 8.96708712 6.73014425 23.92596503 6.6796875 34.64453125 C6.67767334 35.81113281 6.67565918 36.97773438 6.67358398 38.1796875 C6.54381483 49.58072323 6.00382843 61.85960845 2.3671875 72.76953125 C0.0571875 72.76953125 -2.2528125 72.76953125 -4.6328125 72.76953125 C-4.42168823 71.41396118 -4.42168823 71.41396118 -4.20629883 70.03100586 C-2.85360658 60.76008598 -2.28101561 51.71753642 -2.3203125 42.33203125 C-2.32147064 41.65831482 -2.32262878 40.98459839 -2.32382202 40.29046631 C-2.37006242 26.65701931 -3.97417558 14.63624273 -8.6328125 1.76953125 C-8.6328125 1.10953125 -8.6328125 0.44953125 -8.6328125 -0.23046875 C-2.10395325 -1.58551501 -2.10395325 -1.58551501 0 0 Z " fill="#EE7905" transform="translate(321.6328125,151.23046875)"/>
<path d="M0 0 C7.43546667 10.59900373 7.49612501 26.86226791 7.39111328 39.35058594 C7.37496344 41.63016088 7.39109506 43.90797672 7.41015625 46.1875 C7.42319881 56.01972882 6.12605229 64.62184313 3 74 C0.69 74 -1.62 74 -4 74 C-3.90912109 73.41436279 -3.81824219 72.82872559 -3.72460938 72.2253418 C-0.6339981 51.7262682 2.31921031 29.15315719 -4 9 C-4.28617187 8.06671875 -4.57234375 7.1334375 -4.8671875 6.171875 C-5.53450194 4.10002255 -6.25897298 2.04664606 -7 0 C-4.24955015 -1.37522492 -2.88383375 -0.94780206 0 0 Z " fill="#053461" transform="translate(328,150)"/>
<path d="M0 0 C-0.33 2.64 -0.66 5.28 -1 8 C-1.66 7.835 -2.32 7.67 -3 7.5 C-6.73099794 6.87816701 -10.21873378 6.93591074 -14 7 C-14.33 10.3 -14.66 13.6 -15 17 C-14.01 17.33 -13.02 17.66 -12 18 C-12.639375 18.45375 -13.27875 18.9075 -13.9375 19.375 C-16.98225157 23.25013836 -16.81649865 27.1922647 -17 32 C-15.68 32.33 -14.36 32.66 -13 33 C-13 33.66 -13 34.32 -13 35 C-18.94 35.66 -24.88 36.32 -31 37 C-31.33 36.34 -31.66 35.68 -32 35 C-31.36578125 34.79632813 -30.7315625 34.59265625 -30.078125 34.3828125 C-27.70935435 33.12778129 -27.70935435 33.12778129 -27.171875 30.1796875 C-27.03265625 29.08914063 -26.8934375 27.99859375 -26.75 26.875 C-26.52570313 25.23144531 -26.52570313 25.23144531 -26.296875 23.5546875 C-26.19890625 22.71164062 -26.1009375 21.86859375 -26 21 C-26.99 20.67 -27.98 20.34 -29 20 C-28.0409375 19.5359375 -28.0409375 19.5359375 -27.0625 19.0625 C-23.90231425 15.90231425 -24.18099207 12.31666092 -24 8 C-28.72065967 9.54269924 -33.41664092 11.07794619 -38 13 C-37.67 10.03 -37.34 7.06 -37 4 C-32.71019217 3.32099863 -28.4179103 2.65907752 -24.125 2 C-22.92101562 1.80921875 -21.71703125 1.6184375 -20.4765625 1.421875 C-13.58970487 0.37387493 -6.96713537 -0.28971051 0 0 Z " fill="#09396A" transform="translate(172,287)"/>
<path d="M0 0 C0.99 0.495 0.99 0.495 2 1 C2 1.99 2 2.98 2 4 C-9.00507688 9.90735734 -19.97010394 14.60030671 -32 18 C-33.78470703 18.51240234 -33.78470703 18.51240234 -35.60546875 19.03515625 C-49.68365199 22.33592986 -64.63375778 21.26388633 -79 21 C-79.33 18.03 -79.66 15.06 -80 12 C-79.10152344 12.15726562 -78.20304687 12.31453125 -77.27734375 12.4765625 C-51.64067365 16.08482912 -25.70006254 11.0509239 -2.16796875 0.76171875 C-1.45253906 0.51035156 -0.73710938 0.25898438 0 0 Z " fill="#073562" transform="translate(123,318)"/>
<path d="M0 0 C0.495 2.475 0.495 2.475 1 5 C-27.42628768 19.3700988 -27.42628768 19.3700988 -41.25 19.3125 C-42.43335938 19.33666992 -42.43335938 19.33666992 -43.640625 19.36132812 C-47.16844642 19.3643077 -49.41031928 19.32287732 -52.546875 17.60546875 C-54 16 -54 16 -54 14 C-9.39861482 -3.34840086 -9.39861482 -3.34840086 0 0 Z " fill="#013261" transform="translate(314,153)"/>
<path d="M0 0 C2.84787603 1.09264304 5.46603956 2.51218848 8.125 4 C14.17392832 7.60243246 14.17392832 7.60243246 21 8 C21.99 7.34 22.98 6.68 24 6 C24 9.3 24 12.6 24 16 C23.01 16.33 22.02 16.66 21 17 C21.12375 18.546875 21.12375 18.546875 21.25 20.125 C20.95803692 24.6504277 19.83092283 26.52200909 17 30 C14 32 14 32 11 31.875 C7.55212873 30.86937088 6.72177962 30.08107932 5 27 C4.08523335 24.25570004 3.80761556 22.40966906 3.75 19.5625 C3.72421875 18.80066406 3.6984375 18.03882812 3.671875 17.25390625 C4.07736924 14.468547 5.18059991 13.1018859 7 11 C1.60615336 6.32631272 -2.90086082 3.95312517 -10 3 C-7.27045118 -0.85348068 -4.44604815 -0.50915889 0 0 Z " fill="#0D0D0C" transform="translate(164,89)"/>
<path d="M0 0 C1.175625 0.4125 2.35125 0.825 3.5625 1.25 C13.51027219 4.54500341 23.48385311 7.5051225 34 8 C34 8.66 34 9.32 34 10 C33.34 10 32.68 10 32 10 C31.76152344 10.51046875 31.52304688 11.0209375 31.27734375 11.546875 C29.53691462 14.88935051 27.56827572 18.06149708 25.5625 21.25 C25.16740234 21.8996875 24.77230469 22.549375 24.36523438 23.21875 C23.32484203 24.86675917 22.16936143 26.44085142 21 28 C17.52764887 28 17.24663335 27.70080468 14.875 25.375 C9.18091778 19.46238157 0 8.3808224 0 0 Z " fill="#B2B6BA" transform="translate(126,441)"/>
<path d="M0 0 C1.703125 1.53125 1.703125 1.53125 3 3 C2.37351563 3.09796875 1.74703125 3.1959375 1.1015625 3.296875 C0.28429687 3.44640625 -0.53296875 3.5959375 -1.375 3.75 C-2.18710938 3.88921875 -2.99921875 4.0284375 -3.8359375 4.171875 C-6.17709092 4.81749261 -6.17709092 4.81749261 -7.2890625 7.078125 C-7.52367187 7.71234375 -7.75828125 8.3465625 -8 9 C-7.01 10.2065625 -7.01 10.2065625 -6 11.4375 C-3.31436344 15.47073355 -3.30793062 19.3025791 -4 24 C-5.0625 27 -5.0625 27 -7 29 C-10.375 30.125 -10.375 30.125 -14 30 C-19.33993068 25.72805545 -21.16506467 21.42227364 -23 15 C-23.66 14.01 -24.32 13.02 -25 12 C-25.25760279 9.30547479 -25.08900053 6.71451625 -25 4 C-24.34 5.32 -23.68 6.64 -23 8 C-18.28854359 6.68592032 -14.22724977 5.40131986 -10.375 2.3125 C-6.92439966 -0.34365979 -4.37471636 -0.67303329 0 0 Z " fill="#171616" transform="translate(221,88)"/>
<path d="M0 0 C0.33 1.32 0.66 2.64 1 4 C-0.31321858 5.6825613 -1.64613064 7.34997172 -3 9 C-2.67 9.99 -2.34 10.98 -2 12 C-1.49353378 16.4336551 -1.40366526 19.90274408 -3.5625 23.875 C-9.31932363 28.89376932 -14.24202267 29.32564928 -21.64453125 29.203125 C-24 29 -24 29 -26 28 C-26.495 29.485 -26.495 29.485 -27 31 C-27.5456662 31.07437286 -28.0913324 31.14874573 -28.65353394 31.22537231 C-35.72763383 32.18988518 -42.80139408 33.15687138 -49.875 34.125 C-51.02047302 34.28173187 -52.16594604 34.43846375 -53.34613037 34.59994507 C-65.61527093 36.28013446 -77.88263175 37.97057161 -90.140625 39.73046875 C-91.55222397 39.93313354 -91.55222397 39.93313354 -92.99234009 40.13989258 C-97.38073566 40.77107151 -101.76855523 41.40602077 -106.15576172 42.04541016 C-116.41999138 43.53406889 -126.6930975 44.84280022 -137 46 C-137 45.34 -137 44.68 -137 44 C-131.50027426 39.83354111 -125.22201109 39.95068264 -118.59716797 39.8112793 C-104.6401495 39.46531726 -91.007276 37.21234912 -77.25531006 34.99862671 C-70.1375463 33.8535037 -63.00792506 32.79664175 -55.875 31.75 C-54.77397949 31.58717529 -53.67295898 31.42435059 -52.53857422 31.2565918 C-50.54521959 30.96183078 -48.55166532 30.6684149 -46.55786133 30.37670898 C-44.39276972 30.05784515 -42.22937948 29.72746159 -40.06640625 29.39453125 C-37.35192959 29.04528011 -34.79462495 28.89546731 -32.0625 28.9375 C-31.29035156 28.94652344 -30.51820313 28.95554687 -29.72265625 28.96484375 C-29.15417969 28.97644531 -28.58570313 28.98804688 -28 29 C-28 28.01 -28 27.02 -28 26 C-26.91460937 26.04640625 -25.82921875 26.0928125 -24.7109375 26.140625 C-23.26565269 26.17816487 -21.82033789 26.21456264 -20.375 26.25 C-19.66214844 26.28351563 -18.94929688 26.31703125 -18.21484375 26.3515625 C-12.9902614 26.4474264 -10.19015522 25.37790974 -6 22 C-4.14209924 20.14209924 -4.82050293 17.57527841 -4.76953125 15.10546875 C-4.92323394 12.57480918 -4.92323394 12.57480918 -7 9 C-3.535 4.545 -3.535 4.545 0 0 Z " fill="#E77913" transform="translate(274,282)"/>
<path d="M0 0 C6.65225128 6.65225128 5.19521667 21.41017114 5.20654297 30.20825195 C5.18781471 36.47285295 5.11505278 42.73640847 5 49 C2.90575768 46.90575768 2.5418499 45.92875764 1.6875 43.1875 C0.21595141 39.13338365 -1.56284485 36.71775058 -5 34 C-8.16701423 32.66436389 -8.16701423 32.66436389 -11 32 C-9.89010776 29.67477576 -8.69017484 27.49361124 -7.34375 25.29296875 C-2.27008364 16.7472807 -0.668238 9.85991986 0 0 Z " fill="#073460" transform="translate(315,160)"/>
<path d="M0 0 C-0.33 3.3 -0.66 6.6 -1 10 C-0.24380371 9.87882812 0.51239258 9.75765625 1.29150391 9.6328125 C4.73525902 9.0837545 8.18009782 8.54181246 11.625 8 C12.81480469 7.80921875 14.00460938 7.6184375 15.23046875 7.421875 C16.38417969 7.24140625 17.53789062 7.0609375 18.7265625 6.875 C20.31331787 6.62363281 20.31331787 6.62363281 21.93212891 6.3671875 C24.9869785 6.00155852 27.92662562 5.93555178 31 6 C31 7.32 31 8.64 31 10 C30.34 10 29.68 10 29 10 C29 9.34 29 8.68 29 8 C26.47906702 8.311712 23.9582543 8.62434902 21.4375 8.9375 C20.73302734 9.02451172 20.02855469 9.11152344 19.30273438 9.20117188 C14.86088073 9.75384491 10.42925336 10.35394596 6 11 C6 12.32 6 13.64 6 15 C6.66 15.33 7.32 15.66 8 16 C7.01 16.33 6.02 16.66 5 17 C4.505 14.525 4.505 14.525 4 12 C2.58297487 12.14230808 1.1663904 12.28900746 -0.25 12.4375 C-1.03890625 12.51871094 -1.8278125 12.59992188 -2.640625 12.68359375 C-4.82364639 12.97634993 -6.8773182 13.42064419 -9 14 C-9 13.34 -9 12.68 -9 12 C-10.98 11.34 -12.96 10.68 -15 10 C-15 10.99 -15 11.98 -15 13 C-15.66 13 -16.32 13 -17 13 C-16.67 11.35 -16.34 9.7 -16 8 C-7.42857143 7.85714286 -7.42857143 7.85714286 -4 9 C-3.34 6.69 -2.68 4.38 -2 2 C-6.08383439 2.47495798 -10.16696841 2.95569331 -14.25 3.4375 C-15.40886719 3.57220703 -16.56773437 3.70691406 -17.76171875 3.84570312 C-18.87675781 3.97783203 -19.99179688 4.10996094 -21.140625 4.24609375 C-22.16704102 4.36654053 -23.19345703 4.4869873 -24.25097656 4.61108398 C-26.56959198 4.93910835 -28.73868208 5.41280695 -31 6 C-32.41534778 6.06456879 -33.83337689 6.08611039 -35.25 6.0625 C-37.10625 6.0315625 -37.10625 6.0315625 -39 6 C-39.33 8.97 -39.66 11.94 -40 15 C-39.40832031 14.6390625 -38.81664062 14.278125 -38.20703125 13.90625 C-37.41683594 13.4421875 -36.62664062 12.978125 -35.8125 12.5 C-35.03519531 12.0359375 -34.25789062 11.571875 -33.45703125 11.09375 C-30.75896614 9.89270353 -28.9193018 9.79258957 -26 10 C-25.77106703 13.03336186 -25.63524155 15.97465051 -26 19 C-28 21.0625 -28 21.0625 -30 22 C-29.34 22.33 -28.68 22.66 -28 23 C-27.68860353 32.18619583 -27.68860353 32.18619583 -30 36 C-32.125 36.8125 -32.125 36.8125 -34 37 C-33.29423828 36.41798828 -33.29423828 36.41798828 -32.57421875 35.82421875 C-30.59007113 33.52497076 -30.31466837 31.78688189 -29.8125 28.8125 C-29.57466797 27.46091797 -29.57466797 27.46091797 -29.33203125 26.08203125 C-29.22246094 25.39496094 -29.11289063 24.70789063 -29 24 C-30.98 23.67 -32.96 23.34 -35 23 C-35 22.34 -35 21.68 -35 21 C-33.5459375 20.443125 -33.5459375 20.443125 -32.0625 19.875 C-28.68859031 18.28947638 -28.68859031 18.28947638 -28.125 14.8125 C-28.08375 13.884375 -28.0425 12.95625 -28 12 C-28.77085937 12.3609375 -29.54171875 12.721875 -30.3359375 13.09375 C-31.33882812 13.5578125 -32.34171875 14.021875 -33.375 14.5 C-34.37273437 14.9640625 -35.37046875 15.428125 -36.3984375 15.90625 C-39 17 -39 17 -41 17 C-41.08121924 15.39667209 -41.13929134 13.79215974 -41.1875 12.1875 C-41.22230469 11.29417969 -41.25710937 10.40085937 -41.29296875 9.48046875 C-41 7 -41 7 -39.87670898 5.41796875 C-37.23360808 3.42094389 -34.95172533 3.2671795 -31.6796875 2.83203125 C-30.4215625 2.66123047 -29.1634375 2.49042969 -27.8671875 2.31445312 C-27.21073242 2.23203369 -26.55427734 2.14961426 -25.87792969 2.06469727 C-23.90115518 1.81579331 -21.92708247 1.54572843 -19.953125 1.27539062 C-13.24542623 0.39082139 -6.7645341 -0.21462964 0 0 Z " fill="#E3D7C9" transform="translate(174,285)"/>
<path d="M0 0 C0.69287109 0.01804687 1.38574219 0.03609375 2.09960938 0.0546875 C3.79617664 0.10148936 5.49202476 0.17322376 7.1875 0.25 C6.5390625 2.203125 6.5390625 2.203125 5.1875 4.25 C2.5859375 4.859375 2.5859375 4.859375 -0.4375 5 C-1.44039063 5.05671875 -2.44328125 5.1134375 -3.4765625 5.171875 C-4.24742187 5.19765625 -5.01828125 5.2234375 -5.8125 5.25 C-5.8125 5.91 -5.8125 6.57 -5.8125 7.25 C-4.575 7.146875 -3.3375 7.04375 -2.0625 6.9375 C1.36867839 6.94359446 1.96936198 7.06910506 4.75 9.375 C6.52946438 12.93392876 6.4102635 14.50019194 5.1875 18.25 C3.27018479 20.77737004 2.27244591 21.2216847 -0.8125 22.25 C-2.99761688 22.3696943 -5.18664147 22.42527453 -7.375 22.4375 C-8.53128906 22.45167969 -9.68757812 22.46585937 -10.87890625 22.48046875 C-13.8125 22.25 -13.8125 22.25 -15.8125 20.25 C-14.66796875 18.76171875 -14.66796875 18.76171875 -12.8125 17.25 C-10.11328125 16.95703125 -10.11328125 16.95703125 -7.125 17.0625 C-5.63419922 17.10310547 -5.63419922 17.10310547 -4.11328125 17.14453125 C-2.97439453 17.19673828 -2.97439453 17.19673828 -1.8125 17.25 C-1.8125 16.59 -1.8125 15.93 -1.8125 15.25 C-4.7825 15.25 -7.7525 15.25 -10.8125 15.25 C-10.4825 14.26 -10.1525 13.27 -9.8125 12.25 C-10.8025 11.92 -11.7925 11.59 -12.8125 11.25 C-13.125 8 -13.125 8 -12.8125 4.25 C-8.94638329 0.02701098 -5.44708 -0.27105087 0 0 Z " fill="#0A396A" transform="translate(262.8125,284.75)"/>
<path d="M0 0 C-0.35227264 6.69318008 -4.04207071 13.24168557 -8.91015625 17.78125 C-11.35142738 19.20494457 -12.81852473 19.37351033 -15.625 19.3125 C-16.40101563 19.30863281 -17.17703125 19.30476563 -17.9765625 19.30078125 C-20 19 -20 19 -22 17 C-21.90797885 12.2149002 -20.95218399 8.91702205 -17.6484375 5.35546875 C-12.37698681 1.02088726 -6.70343029 -0.57050471 0 0 Z " fill="#080807" transform="translate(250,228)"/>
<path d="M0 0 C3.0625 2 3.0625 2 5 4 C4.82227527 7.90994399 4.4321336 9.5678664 1.625 12.375 C-4.13230992 14.95586307 -9.70347794 15.10200737 -15.7109375 13.09375 C-17.86408059 12.14283507 -19.94095062 11.13883225 -22 10 C-17.12166552 2.57644754 -8.92263867 -1.95020922 0 0 Z " fill="#070707" transform="translate(290,211)"/>
<path d="M0 0 C0.66 3.3 1.32 6.6 2 10 C3.65 9.67 5.3 9.34 7 9 C7.66 8.01 8.32 7.02 9 6 C8.835 6.825 8.67 7.65 8.5 8.5 C7.94103955 12.41272317 7.93192813 16.05183173 8 20 C6.02 20.99 6.02 20.99 4 22 C2 19 2 19 2.0625 15.75 C1.98815213 11.28912755 0.84973951 9.00776894 -1 5 C-1 4.01 -1 3.02 -1 2 C-3.64 2 -6.28 2 -9 2 C-9.18175781 2.61488281 -9.36351562 3.22976563 -9.55078125 3.86328125 C-9.80214844 4.67152344 -10.05351562 5.47976563 -10.3125 6.3125 C-10.55613281 7.11300781 -10.79976562 7.91351563 -11.05078125 8.73828125 C-12.0520037 11.12391006 -13.17310442 12.22315635 -15 14 C-15.34740923 15.99760305 -15.67966043 17.99787771 -16 20 C-17.5625 22.875 -17.5625 22.875 -19 25 C-18.34 25.66 -17.68 26.32 -17 27 C-19.97 27.33 -22.94 27.66 -26 28 C-25.67 27.34 -25.34 26.68 -25 26 C-24.93049459 24.45976004 -24.91547643 22.91665012 -24.9375 21.375 C-24.94652344 20.55773437 -24.95554688 19.74046875 -24.96484375 18.8984375 C-24.97644531 18.27195312 -24.98804688 17.64546875 -25 17 C-24.34 17 -23.68 17 -23 17 C-23.33 16.34 -23.66 15.68 -24 15 C-24.04022391 12.6670134 -24.04320247 10.33293334 -24 8 C-21.03 8.33 -18.06 8.66 -15 9 C-14.67 8.01 -14.34 7.02 -14 6 C-13.67 6.66 -13.34 7.32 -13 8 C-12.5875 6.865625 -12.175 5.73125 -11.75 4.5625 C-10 1 -10 1 -8.1875 0.0625 C-5.45373664 -0.01560752 -2.73457082 -0.06214934 0 0 Z " fill="#D0D8DF" transform="translate(218,289)"/>
<path d="M0 0 C-0.43550442 5.13594872 -1.85364687 7.53491546 -5.375 11.25 C-6.16648437 12.10078125 -6.95796875 12.9515625 -7.7734375 13.828125 C-10.86627276 16.84499589 -12.95568556 18.30987177 -17.25 18.4375 C-22.50270365 18.36012793 -25.07240877 16.34263084 -29 13 C-25.81445836 10.33124114 -22.71366781 9.01394624 -18.8125 7.625 C-13.82948241 5.78089113 -9.33041887 3.69318138 -4.8046875 0.91796875 C-3 0 -3 0 0 0 Z " fill="#F0EFEF" transform="translate(305,171)"/>
<path d="M0 0 C0 1.65 0 3.3 0 5 C-2.97 4.67 -5.94 4.34 -9 4 C-8.67 6.97 -8.34 9.94 -8 13 C-8.66 13 -9.32 13 -10 13 C-10 15.97 -10 18.94 -10 22 C-9.34 22.33 -8.68 22.66 -8 23 C-9.41377782 23.36552803 -10.83120576 23.71695495 -12.25 24.0625 C-13.43335938 24.35833984 -13.43335938 24.35833984 -14.640625 24.66015625 C-17.10394822 25.01497267 -18.65604132 24.76877544 -21 24 C-20.01 23.34 -19.02 22.68 -18 22 C-17.71096369 20.02637498 -17.71096369 20.02637498 -17.9375 17.8125 C-18.10087446 13.4226994 -17.41086183 10.14440663 -16 6 C-18.31 6.33 -20.62 6.66 -23 7 C-23 5.68 -23 4.36 -23 3 C-15.38278243 0.56897311 -7.97528341 -0.16968688 0 0 Z " fill="#103E6E" transform="translate(203,293)"/>
<path d="M0 0 C3.89010123 1.24483239 5.47090611 2.92683865 8.125 6 C8.888125 6.86625 9.65125 7.7325 10.4375 8.625 C12.125 11 12.125 11 12.125 14 C8.14106389 15.84566532 4.68123317 16.36022829 0.3125 16.625 C-1.42966797 16.73714844 -1.42966797 16.73714844 -3.20703125 16.8515625 C-4.52767578 16.92503906 -4.52767578 16.92503906 -5.875 17 C-5.95597324 14.72975032 -6.01417704 12.45867925 -6.0625 10.1875 C-6.09730469 8.92292969 -6.13210937 7.65835937 -6.16796875 6.35546875 C-5.875 3 -5.875 3 -4.54296875 1.05078125 C-2.875 0 -2.875 0 0 0 Z " fill="#DBDAD8" transform="translate(98.875,378)"/>
<path d="M0 0 C2.35125 0.061875 2.35125 0.061875 4.75 0.125 C4.75 5.075 4.75 10.025 4.75 15.125 C1.75 16.125 1.75 16.125 -0.40625 15.26953125 C-1.1796875 14.82996094 -1.953125 14.39039063 -2.75 13.9375 C-3.5234375 13.51082031 -4.296875 13.08414063 -5.09375 12.64453125 C-7.40847654 11.01331997 -8.77684107 9.53605432 -10.25 7.125 C-10.1875 4.5 -10.1875 4.5 -9.25 2.125 C-6.1454192 0.07863975 -3.6645836 -0.09643641 0 0 Z " fill="#D7D6D4" transform="translate(396.25,178.875)"/>
<path d="M0 0 C-0.7115625 1.051875 -0.7115625 1.051875 -1.4375 2.125 C-3.08739857 5.16081337 -3.60368464 7.59168786 -4 11 C-3.34 11.33 -2.68 11.66 -2 12 C-2.99 13.485 -2.99 13.485 -4 15 C-4.33340471 18.04195427 -4.33340471 18.04195427 -4 21 C-3.34 21.66 -2.68 22.32 -2 23 C-5.96 23.33 -9.92 23.66 -14 24 C-13.67 23.34 -13.34 22.68 -13 22 C-12.93003986 20.29297265 -12.91559846 18.58331997 -12.9375 16.875 C-12.94652344 15.96492188 -12.95554688 15.05484375 -12.96484375 14.1171875 C-12.97644531 13.41851562 -12.98804688 12.71984375 -13 12 C-12.34 12 -11.68 12 -11 12 C-10.979375 10.72125 -10.95875 9.4425 -10.9375 8.125 C-10.92589844 7.40570313 -10.91429687 6.68640625 -10.90234375 5.9453125 C-10.87350758 3.91814596 -10.87350758 3.91814596 -12 2 C-7.8803623 0.70756464 -4.33168317 -0.26252625 0 0 Z " fill="#0C3B6C" transform="translate(178,296)"/>
<path d="M0 0 C3.06545291 -0.55735507 5.06377515 -0.61002886 7.7265625 1.125 C9.20320126 2.35669868 10.60755531 3.6738622 12 5 C10.45212498 8.83450856 8.06277254 11.02555699 5 13.75 C4.113125 14.54921875 3.22625 15.3484375 2.3125 16.171875 C0 18 0 18 -2 18 C-2.05397335 15.5622037 -2.09365616 13.12560315 -2.125 10.6875 C-2.14175781 9.99720703 -2.15851563 9.30691406 -2.17578125 8.59570312 C-2.21217794 4.82864604 -2.14378864 3.21568296 0 0 Z " fill="#D9D8D6" transform="translate(123,368)"/>
<path d="M0 0 C2.31 0 4.62 0 7 0 C5.515 1.485 5.515 1.485 4 3 C4.99 3.66 5.98 4.32 7 5 C7.1875 8.625 7.1875 8.625 7 12 C5.02 12.99 5.02 12.99 3 14 C3.99 14.66 4.98 15.32 6 16 C6.5 18.9375 6.5 18.9375 6 22 C3.75 24 3.75 24 1 25 C-1.171875 24.0625 -1.171875 24.0625 -3 23 C-2.80743982 13.82713348 -2.80743982 13.82713348 0.5625 10.375 C1.7690625 9.694375 1.7690625 9.694375 3 9 C1.68 8.34 0.36 7.68 -1 7 C-0.67 4.69 -0.34 2.38 0 0 Z " fill="#F78418" transform="translate(159,295)"/>
<path d="M0 0 C0.125 6.625 0.125 6.625 -1 10 C-0.10075806 9.86368164 -0.10075806 9.86368164 0.81665039 9.72460938 C3.56450105 9.31111974 6.31346034 8.90550618 9.0625 8.5 C10.00544922 8.35691406 10.94839844 8.21382813 11.91992188 8.06640625 C17.00732242 7.32190861 21.8587994 6.82886434 27 7 C27 7.66 27 8.32 27 9 C22.75076277 9.67159025 18.50049499 10.33642061 14.25 11 C13.0434375 11.19078125 11.836875 11.3815625 10.59375 11.578125 C8.85351562 11.84882813 8.85351562 11.84882813 7.078125 12.125 C5.47565918 12.37636719 5.47565918 12.37636719 3.84082031 12.6328125 C1 13 1 13 -3 13 C-3.125 5.25 -3.125 5.25 -2 3 C-3.95292969 3.23396484 -3.95292969 3.23396484 -5.9453125 3.47265625 C-7.67182562 3.66970394 -9.39839097 3.86629443 -11.125 4.0625 C-12.40890625 4.2181543 -12.40890625 4.2181543 -13.71875 4.37695312 C-18.37754728 4.89658821 -22.37604967 5.08397524 -27 4 C-27 3.67 -27 3.34 -27 3 C-23.62601911 2.49295891 -20.25067379 1.99563464 -16.875 1.5 C-15.92367187 1.35691406 -14.97234375 1.21382813 -13.9921875 1.06640625 C-9.28805294 0.38038663 -4.7695743 -0.19271007 0 0 Z " fill="#E67A15" transform="translate(176,282)"/>
<path d="M0 0 C-1.69976402 1.13317601 -3.41124014 2.25032008 -5.15625 3.3125 C-7.21696692 4.86372066 -7.21696692 4.86372066 -7.46875 7.375 C-7.4790625 8.24125 -7.489375 9.1075 -7.5 10 C-7.53125 12.625 -7.53125 12.625 -8 15 C-10.03125 16.8125 -10.03125 16.8125 -12 18 C-11.835 17.34 -11.67 16.68 -11.5 16 C-11.0756415 13.45384899 -10.99269096 11.36751088 -11.0625 8.8125 C-11 5 -11 5 -9 3 C-12.63 3 -16.26 3 -20 3 C-20 3.66 -20 4.32 -20 5 C-19.34 5 -18.68 5 -18 5 C-18 7.97 -18 10.94 -18 14 C-20 13 -20 13 -20.8515625 10.93359375 C-21.56770833 8.62239583 -22.28385417 6.31119792 -23 4 C-26.3 4.33 -29.6 4.66 -33 5 C-33 5.66 -33 6.32 -33 7 C-32.34 7 -31.68 7 -31 7 C-31.33 8.32 -31.66 9.64 -32 11 C-32 10.01 -32 9.02 -32 8 C-34.475 7.01 -34.475 7.01 -37 6 C-37 5.34 -37 4.68 -37 4 C-32.85651953 3.42431458 -28.71223985 2.85488364 -24.56713867 2.29101562 C-23.15968137 2.09868625 -21.75244868 1.9047052 -20.34545898 1.70898438 C-18.31291852 1.42654699 -16.2796211 1.15023089 -14.24609375 0.875 C-13.02591553 0.70742188 -11.8057373 0.53984375 -10.54858398 0.3671875 C-7.00459404 0.00047536 -3.56010125 -0.06389413 0 0 Z " fill="#F2E3D1" transform="translate(258,284)"/>
<path d="M0 0 C0.66 1.32 1.32 2.64 2 4 C4.31 3.01 6.62 2.02 9 1 C9 5 9 5 7.5 6.75 C7.005 7.1625 6.51 7.575 6 8 C6.66 8.33 7.32 8.66 8 9 C8.3125 11.75 8.3125 11.75 8 15 C5.8125 17.4375 5.8125 17.4375 3 19 C0.1875 18.75 0.1875 18.75 -2 18 C-2.36923077 11.47692308 -2.36923077 11.47692308 -0.5 9.0625 C-0.005 8.711875 0.49 8.36125 1 8 C0.34 7.67 -0.32 7.34 -1 7 C-1.04254356 5.00045254 -1.04080783 2.99958364 -1 1 C-0.67 0.67 -0.34 0.34 0 0 Z " fill="#F67E09" transform="translate(177,299)"/>
<path d="M0 0 C-0.7631861 1.60781893 -1.53587058 3.21113138 -2.3125 4.8125 C-2.74175781 5.70582031 -3.17101562 6.59914062 -3.61328125 7.51953125 C-4.89251314 9.80773477 -5.96349445 11.36751968 -8 13 C-10.43800017 12.84762499 -11.73876522 12.17726646 -13.75 10.8125 C-15.6437339 8.06658584 -15.54055017 6.24330099 -15 3 C-10.87563835 -1.12436165 -5.42964536 -0.28466102 0 0 Z " fill="#D9D7D6" transform="translate(397,205)"/>
<path d="M0 0 C0.66 0 1.32 0 2 0 C2.33 1.32 2.66 2.64 3 4 C3.99 3.34 4.98 2.68 6 2 C7.32 2 8.64 2 10 2 C10.125 7.75 10.125 7.75 9 10 C8.97011197 12.04946506 9.06607276 14.07774318 9.16015625 16.125 C9 18 9 18 7 20 C10.63 20 14.26 20 18 20 C18 20.33 18 20.66 18 21 C15.81347261 21.33965474 13.62571975 21.67142477 11.4375 22 C10.21933594 22.185625 9.00117188 22.37125 7.74609375 22.5625 C4.12372152 22.98555077 0.64287954 23.07501425 -3 23 C-3.2226746 21.56465159 -3.42761906 20.12654475 -3.625 18.6875 C-3.74101562 17.88699219 -3.85703125 17.08648437 -3.9765625 16.26171875 C-4 14 -4 14 -2 11 C-2.33 10.67 -2.66 10.34 -3 10 C-3.30172745 6.60556614 -3.35204436 4.60807662 -1.625 1.625 C-1.08875 1.08875 -0.5525 0.5525 0 0 Z M0 2 C-1.33187793 3.11166864 -1.33187793 3.11166864 -1.1875 5.9375 C-1.33278733 9.10892859 -1.33278733 9.10892859 1 11 C0.01 11.66 -0.98 12.32 -2 13 C-2.25015873 16.58357241 -2.25015873 16.58357241 -2 20 C0.24875747 20.86850174 0.24875747 20.86850174 3 21 C5.9315113 19.5714939 5.9315113 19.5714939 8 17 C8.5838196 13.9149255 8.5838196 13.9149255 8 11 C7.34 10.34 6.68 9.68 6 9 C6.99 8.34 7.98 7.68 9 7 C8.67 5.68 8.34 4.36 8 3 C6.02 3.99 4.04 4.98 2 6 C1.34 4.68 0.68 3.36 0 2 Z " fill="#EDEAE6" transform="translate(177,297)"/>
<path d="M0 0 C0.33 0.99 0.66 1.98 1 3 C-1.97 4.65 -4.94 6.3 -8 8 C-5.68143083 9.54571278 -3.49361571 10.79618552 -1 12 C-1 14.31 -1 16.62 -1 19 C-2.98 19.99 -2.98 19.99 -5 21 C-6.32018588 19.25579087 -7.63088602 17.50439909 -8.9375 15.75 C-9.66839844 14.77546875 -10.39929688 13.8009375 -11.15234375 12.796875 C-12.75345079 10.3732119 -13.57636238 8.8242508 -14 6 C-13.175 5.7525 -12.35 5.505 -11.5 5.25 C-7.47626529 3.81295189 -3.78020976 1.97645485 0 0 Z " fill="#063462" transform="translate(143,299)"/>
<path d="M0 0 C-14.61707752 2.45650528 -29.27501634 4.31740236 -44 6 C-44 5.34 -44 4.68 -44 4 C-36.98424887 -1.31496297 -27.16524839 -0.28364681 -18.73828125 -0.60546875 C-14.77625306 -0.77126791 -11.0128519 -0.99784088 -7.09375 -1.65625 C-3.87562711 -2.01381921 -2.63521588 -1.7919468 0 0 Z " fill="#E09955" transform="translate(181,322)"/>
<path d="M0 0 C-0.99 0.33 -1.98 0.66 -3 1 C-3 1.66 -3 2.32 -3 3 C-1.35 3.66 0.3 4.32 2 5 C2.04254356 6.99954746 2.04080783 9.00041636 2 11 C1.67 11.33 1.34 11.66 1 12 C-0.65 12 -2.3 12 -4 12 C-4.66 8.7 -5.32 5.4 -6 2 C-9.3 2.33 -12.6 2.66 -16 3 C-16.99 5.97 -17.98 8.94 -19 12 C-19.92538169 8.29847322 -20.08174162 7.36541838 -19 4 C-19.66 4 -20.32 4 -21 4 C-21 3.34 -21 2.68 -21 2 C-13.90961228 0.49025965 -7.24997422 -0.28307925 0 0 Z " fill="#F68112" transform="translate(224,287)"/>
<path d="M0 0 C3.41782456 0.25317219 4.27744077 1.28374624 6.75 3.8125 C9 7 9 7 9 11 C4.71 11 0.42 11 -4 11 C-4 4.82543444 -3.90306688 4.14700856 0 0 Z " fill="#DCDBDA" transform="translate(198,508)"/>
<path d="M0 0 C3.08559844 1.12887748 4.51692819 2.38053523 6.5625 4.9375 C6.8925 6.2575 7.2225 7.5775 7.5625 8.9375 C2.9425 9.2675 -1.6775 9.5975 -6.4375 9.9375 C-5.8375 3.5775 -5.8375 3.5775 -4.1875 0.9375 C-2.4375 -0.0625 -2.4375 -0.0625 0 0 Z " fill="#D6D5D4" transform="translate(175.4375,511.0625)"/>
<path d="M0 0 C1.03115279 3.26913624 0.9638984 5.86041348 0.5625 9.25 C0.46066406 10.14203125 0.35882813 11.0340625 0.25390625 11.953125 C0.17011719 12.62859375 0.08632812 13.3040625 0 14 C-2.49690308 13.0074699 -4.9874566 12.00526783 -7.46484375 10.96484375 C-11.97148179 9.09241752 -16.10087331 7.51569755 -21 7 C-19 5 -19 5 -16.5390625 4.734375 C-15.57742187 4.73953125 -14.61578125 4.7446875 -13.625 4.75 C-12.19027344 4.74226563 -12.19027344 4.74226563 -10.7265625 4.734375 C-7.98941342 5.00103136 -6.34012543 5.60257913 -4 7 C-3.71125 6.401875 -3.4225 5.80375 -3.125 5.1875 C-2 3 -2 3 0 0 Z " fill="#181717" transform="translate(179,66)"/>
<path d="M0 0 C1.98 0 3.96 0 6 0 C6.66 3.3 7.32 6.6 8 10 C9.65 9.67 11.3 9.34 13 9 C13.66 8.01 14.32 7.02 15 6 C14.835 6.825 14.67 7.65 14.5 8.5 C13.94103955 12.41272317 13.93192813 16.05183173 14 20 C12.02 20.99 12.02 20.99 10 22 C8 19 8 19 8.0625 15.75 C7.99134642 11.4807852 6.74517583 8.85392995 5 5 C5 3.68 5 2.36 5 1 C3.35 1 1.7 1 0 1 C0 0.67 0 0.34 0 0 Z " fill="#DFDAD4" transform="translate(212,289)"/>
<path d="M0 0 C2.97 0 5.94 0 9 0 C9 0.33 9 0.66 9 1 C6.36 1 3.72 1 1 1 C0.81824219 1.61488281 0.63648438 2.22976563 0.44921875 2.86328125 C0.19785156 3.67152344 -0.05351562 4.47976563 -0.3125 5.3125 C-0.55613281 6.11300781 -0.79976562 6.91351563 -1.05078125 7.73828125 C-2.0637965 10.15200895 -2.95662639 11.38442628 -5 13 C-10.36986301 14.31506849 -10.36986301 14.31506849 -13 13 C-13 11.35 -13 9.7 -13 8 C-10.36 8 -7.72 8 -5 8 C-4.67 7.01 -4.34 6.02 -4 5 C-3.67 5.66 -3.34 6.32 -3 7 C-2.01 4.69 -1.02 2.38 0 0 Z " fill="#E9DFD2" transform="translate(208,290)"/>
<path d="M0 0 C3 1 3 1 4 3 C6.31 3 8.62 3 11 3 C11 4.32 11 5.64 11 7 C10.24074219 6.96519531 9.48148437 6.93039062 8.69921875 6.89453125 C7.70535156 6.86746094 6.71148437 6.84039062 5.6875 6.8125 C4.70136719 6.77769531 3.71523437 6.74289062 2.69921875 6.70703125 C-0.40796684 7.04428005 -1.034552 7.6958902 -3 10 C-3.66 10 -4.32 10 -5 10 C-5 8.35 -5 6.7 -5 5 C-3.35 4.34 -1.7 3.68 0 3 C0 2.01 0 1.02 0 0 Z " fill="#E9D8C6" transform="translate(250,296)"/>
<path d="M0 0 C0.33 0.66 0.66 1.32 1 2 C3.02463255 2.65213292 3.02463255 2.65213292 5 3 C5.3125 5.8125 5.3125 5.8125 5 9 C2.75 11 2.75 11 0 12 C-2.3125 11.1875 -2.3125 11.1875 -4 10 C-3.51171875 3.9453125 -3.51171875 3.9453125 -3 2 C-2.01 1.34 -1.02 0.68 0 0 Z " fill="#F67E09" transform="translate(160,308)"/>
<path d="M0 0 C0 1.32 0 2.64 0 4 C-0.66 4 -1.32 4 -2 4 C-2 3.34 -2 2.68 -2 2 C-4.52093298 2.311712 -7.0417457 2.62434902 -9.5625 2.9375 C-10.61920898 3.06801758 -10.61920898 3.06801758 -11.69726562 3.20117188 C-16.13911927 3.75384491 -20.57074664 4.35394596 -25 5 C-25 6.32 -25 7.64 -25 9 C-24.34 9.33 -23.68 9.66 -23 10 C-23.99 10.33 -24.98 10.66 -26 11 C-26.66 8.36 -27.32 5.72 -28 3 C-24.45926096 2.4932817 -20.91727889 1.99582971 -17.375 1.5 C-16.37597656 1.35691406 -15.37695312 1.21382813 -14.34765625 1.06640625 C-9.53055443 0.39647818 -4.87803213 -0.19978289 0 0 Z " fill="#BFC1C2" transform="translate(205,291)"/>
<path d="M0 0 C0.66 0.33 1.32 0.66 2 1 C-5.59 8.59 -13.18 16.18 -21 24 C-21.66 23.67 -22.32 23.34 -23 23 C-15.69568836 14.86710152 -8.2434374 7.18866687 0 0 Z " fill="#505050" transform="translate(243,18)"/>
<path d="M0 0 C0.66 1.32 1.32 2.64 2 4 C4.31 3.01 6.62 2.02 9 1 C9 5 9 5 7.8125 6.5 C7.214375 6.995 6.61625 7.49 6 8 C4.7625 9.051875 4.7625 9.051875 3.5 10.125 C1 12 1 12 -2 13 C-1 10 -1 10 1 8 C0.34 7.67 -0.32 7.34 -1 7 C-1.04254356 5.00045254 -1.04080783 2.99958364 -1 1 C-0.67 0.67 -0.34 0.34 0 0 Z " fill="#F78921" transform="translate(177,299)"/>
<path d="M0 0 C-1.69976402 1.13317601 -3.41124014 2.25032008 -5.15625 3.3125 C-7.21696692 4.86372066 -7.21696692 4.86372066 -7.46875 7.375 C-7.4790625 8.24125 -7.489375 9.1075 -7.5 10 C-7.53125 12.625 -7.53125 12.625 -8 15 C-10.03125 16.8125 -10.03125 16.8125 -12 18 C-11.835 17.34 -11.67 16.68 -11.5 16 C-11.08129258 13.48775551 -10.9919165 11.45497803 -11.0625 8.9375 C-10.98016231 3.75022543 -10.98016231 3.75022543 -9 1 C-6.04335481 -0.4783226 -3.25770263 -0.06032783 0 0 Z " fill="#DEE3EA" transform="translate(258,284)"/>
<path d="M0 0 C-7.64611761 4.58381862 -19.31386828 4.30477655 -28 4 C-25.57663976 1.57663976 -24.47375634 1.57184813 -21.1328125 1.11328125 C-20.16472656 0.97986328 -19.19664062 0.84644531 -18.19921875 0.70898438 C-16.67748047 0.51272461 -16.67748047 0.51272461 -15.125 0.3125 C-14.11824219 0.17005859 -13.11148438 0.02761719 -12.07421875 -0.11914062 C-3.85099263 -1.21666284 -3.85099263 -1.21666284 0 0 Z " fill="#F38620" transform="translate(207,317)"/>
<path d="M0 0 C0.226875 0.61875 0.45375 1.2375 0.6875 1.875 C2.37929835 4.61410209 3.99244161 5.05024472 7 6 C5.03617993 7.50559539 3.21736634 8.89131683 1 10 C0.31068656 12.34907875 0.31068656 12.34907875 -0.125 15.0625 C-0.29257813 15.98160156 -0.46015625 16.90070313 -0.6328125 17.84765625 C-0.75398437 18.55792969 -0.87515625 19.26820313 -1 20 C0.32 20.33 1.64 20.66 3 21 C2.67 21.99 2.34 22.98 2 24 C2 23.34 2 22.68 2 22 C0.68 21.67 -0.64 21.34 -2 21 C-2.63019694 11.82713348 -2.63019694 11.82713348 0 8.375 C0.66 7.92125 1.32 7.4675 2 7 C1.34 6.67 0.68 6.34 0 6 C0 4.02 0 2.04 0 0 Z " fill="#E4E1DE" transform="translate(157,298)"/>
<path d="M0 0 C0.99 0 1.98 0 3 0 C2.34 1.65 1.68 3.3 1 5 C-4.61 5.66 -10.22 6.32 -16 7 C-16 6.01 -16 5.02 -16 4 C-10.61509359 3.08342019 -5.45769811 2.88861841 0 3 C0 2.01 0 1.02 0 0 Z " fill="#E68223" transform="translate(246,308)"/>
<path d="M0 0 C0.33 0.66 0.66 1.32 1 2 C-0.2684375 2.09474609 -0.2684375 2.09474609 -1.5625 2.19140625 C-9.7710018 3.07755133 -14.49041268 4.77466569 -20 11 C-20.66 10.67 -21.32 10.34 -22 10 C-16.63100887 1.82979611 -9.3957544 -0.74569479 0 0 Z " fill="#C8C7C5" transform="translate(244,178)"/>
<path d="M0 0 C0.33 1.32 0.66 2.64 1 4 C0.01 4.66 -0.98 5.32 -2 6 C-1.34 6.33 -0.68 6.66 0 7 C0.31139647 16.18619583 0.31139647 16.18619583 -2 20 C-4.125 20.8125 -4.125 20.8125 -6 21 C-5.29423828 20.41798828 -5.29423828 20.41798828 -4.57421875 19.82421875 C-2.59007113 17.52497076 -2.31466837 15.78688189 -1.8125 12.8125 C-1.65394531 11.91144531 -1.49539062 11.01039063 -1.33203125 10.08203125 C-1.22246094 9.39496094 -1.11289063 8.70789063 -1 8 C-3.97 7.505 -3.97 7.505 -7 7 C-7 6.34 -7 5.68 -7 5 C-6.030625 4.54625 -5.06125 4.0925 -4.0625 3.625 C-0.92920418 2.34213779 -0.92920418 2.34213779 0 0 Z " fill="#E5DFD7" transform="translate(146,301)"/>
<path d="M0 0 C-0.52442422 3.7758544 -1.32654667 6.22372155 -4 9 C-4.99 9 -5.98 9 -7 9 C-7.25 6.1875 -7.25 6.1875 -7 3 C-4.54157496 0.45680168 -3.57478534 0 0 0 Z " fill="#F7861B" transform="translate(201,305)"/>
<path d="M0 0 C0 0.66 0 1.32 0 2 C-7.30139977 3.67959957 -13.58773774 4.18982084 -21 3 C-21 2.67 -21 2.34 -21 2 C-18.81347261 1.66034526 -16.62571975 1.32857523 -14.4375 1 C-13.21933594 0.814375 -12.00117188 0.62875 -10.74609375 0.4375 C-7.12372152 0.01444923 -3.64287954 -0.07501425 0 0 Z " fill="#D5741C" transform="translate(203,289)"/>
<path d="M0 0 C0.80050781 0.22042969 1.60101563 0.44085938 2.42578125 0.66796875 C3.23402344 0.88066406 4.04226563 1.09335937 4.875 1.3125 C5.79732422 1.58126953 5.79732422 1.58126953 6.73828125 1.85546875 C6.73828125 2.84546875 6.73828125 3.83546875 6.73828125 4.85546875 C5.11364283 4.90942353 3.48849584 4.9482407 1.86328125 4.98046875 C0.95835937 5.00367188 0.0534375 5.026875 -0.87890625 5.05078125 C-3.26171875 4.85546875 -3.26171875 4.85546875 -5.26171875 2.85546875 C-2.89519796 -0.18501265 -2.89519796 -0.18501265 0 0 Z " fill="#053365" transform="translate(252.26171875,302.14453125)"/>
<path d="M0 0 C0.33 0.99 0.66 1.98 1 3 C-0.93108963 4.03290841 -2.870118 5.05098672 -4.8125 6.0625 C-5.89144531 6.63097656 -6.97039062 7.19945312 -8.08203125 7.78515625 C-11 9 -11 9 -14 8 C-12.41727399 4.83454798 -9.60316869 4.28879378 -6.4375 2.875 C-5.23996094 2.33617187 -4.04242188 1.79734375 -2.80859375 1.2421875 C-1.88175781 0.83226562 -0.95492187 0.42234375 0 0 Z " fill="#233D5E" transform="translate(143,299)"/>
<path d="M0 0 C8.57142857 -0.28571429 8.57142857 -0.28571429 12 2 C11.34 2 10.68 2 10 2 C10.33 2.99 10.66 3.98 11 5 C9.68 5.33 8.36 5.66 7 6 C7 5.34 7 4.68 7 4 C5.02 3.34 3.04 2.68 1 2 C1 2.99 1 3.98 1 5 C0.34 5 -0.32 5 -1 5 C-0.67 3.35 -0.34 1.7 0 0 Z " fill="#CDC6BF" transform="translate(158,293)"/>
<path d="M0 0 C0.33 0 0.66 0 1 0 C0.67 7.59 0.34 15.18 0 23 C-0.33 23 -0.66 23 -1 23 C-1.33 19.04 -1.66 15.08 -2 11 C-2.99 11.495 -2.99 11.495 -4 12 C-3.52494322 10.18641846 -3.04483958 8.37415821 -2.5625 6.5625 C-2.29566406 5.55316406 -2.02882813 4.54382813 -1.75390625 3.50390625 C-1 1 -1 1 0 0 Z " fill="#2B2A28" transform="translate(75,128)"/>
<path d="M0 0 C2 3 2 3 2 5 C2.99 5.33 3.98 5.66 5 6 C4.525625 6.350625 4.05125 6.70125 3.5625 7.0625 C1.32126175 9.84163543 1.32882342 12.5144717 1 16 C1.66 16.33 2.32 16.66 3 17 C1.68 16.67 0.36 16.34 -1 16 C-1.25 10.375 -1.25 10.375 1 7 C0.67 6.67 0.34 6.34 0 6 C-0.04080783 4.00041636 -0.04254356 1.99954746 0 0 Z " fill="#D1D5D7" transform="translate(174,301)"/>
<path d="M0 0 C0.66 0.33 1.32 0.66 2 1 C2 3.31 2 5.62 2 8 C0.68 8 -0.64 8 -2 8 C-2.93423645 4.98968256 -3.04449911 4.13349732 -2 1 C-1.34 0.67 -0.68 0.34 0 0 Z " fill="#EFB176" transform="translate(223,302)"/>
<path d="M0 0 C0 2.97 0 5.94 0 9 C-2 6 -2 6 -2 2 C-4.64 2.99 -7.28 3.98 -10 5 C-10.33 4.34 -10.66 3.68 -11 3 C-7.14243493 0.84694043 -4.44870215 -0.39253254 0 0 Z " fill="#CECCC8" transform="translate(148,295)"/>
<path d="M0 0 C-1.32 0.33 -2.64 0.66 -4 1 C-4 1.66 -4 2.32 -4 3 C-6.90600261 4.25664978 -8.79604584 5 -12 5 C-12 3.68 -12 2.36 -12 1 C-8.0186217 -0.3271261 -4.14954773 -0.06915913 0 0 Z " fill="#022F62" transform="translate(192,295)"/>
<path d="M0 0 C-1.68534694 2.04217935 -2.66027616 2.91813883 -5.26953125 3.546875 C-10.03932732 3.92787254 -14.28959777 4.11562158 -19 3 C-19 2.67 -19 2.34 -19 2 C-16.77149723 1.66225668 -14.54216533 1.3299813 -12.3125 1 C-10.45044922 0.7215625 -10.45044922 0.7215625 -8.55078125 0.4375 C-5.64113629 0.07899589 -2.92299978 -0.08942256 0 0 Z " fill="#CD721D" transform="translate(168,283)"/>
<path d="M0 0 C1.90845703 0.16628906 1.90845703 0.16628906 3.85546875 0.3359375 C4.83128906 0.43132812 5.80710938 0.52671875 6.8125 0.625 C6.8125 0.955 6.8125 1.285 6.8125 1.625 C1.2025 2.285 -4.4075 2.945 -10.1875 3.625 C-10.1875 2.965 -10.1875 2.305 -10.1875 1.625 C-6.35207543 -0.93194972 -4.52847467 -0.41545639 0 0 Z " fill="#DF7A1B" transform="translate(147.1875,324.375)"/>
<path d="M0 0 C1.125 1.6875 1.125 1.6875 2 4 C1.22309567 7.88452166 0.09955721 8.92632766 -3.125 11.3125 C-4.548125 12.1478125 -4.548125 12.1478125 -6 13 C-6 12.01 -6 11.02 -6 10 C-4.7934375 9.1028125 -4.7934375 9.1028125 -3.5625 8.1875 C-0.71154069 6.18226129 -0.71154069 6.18226129 -0.1875 2.75 C-0.125625 1.8425 -0.06375 0.935 0 0 Z " fill="#F1831C" transform="translate(270,297)"/>
<path d="M0 0 C0.33 0.66 0.66 1.32 1 2 C-4.52967941 2.71033431 -9.49983036 3.30267176 -15 2 C-15 1.67 -15 1.34 -15 1 C-9.91913204 0.15318867 -5.15171623 -0.09038099 0 0 Z " fill="#D6761B" transform="translate(233,285)"/>
<path d="M0 0 C0.33 0 0.66 0 1 0 C1 2.97 1 5.94 1 9 C2.32 9.33 3.64 9.66 5 10 C0.545 10.495 0.545 10.495 -4 11 C-4 10.34 -4 9.68 -4 9 C-3.01 9 -2.02 9 -1 9 C-0.67 6.03 -0.34 3.06 0 0 Z " fill="#EEEDE9" transform="translate(172,286)"/>
<path d="M0 0 C0 1.32 0 2.64 0 4 C-0.66 4 -1.32 4 -2 4 C-2 3.34 -2 2.68 -2 2 C-5.3 2.33 -8.6 2.66 -12 3 C-12.33 2.34 -12.66 1.68 -13 1 C-8.61414671 0.29826347 -4.44209357 -0.10834375 0 0 Z " fill="#DED8CE" transform="translate(205,291)"/>
<path d="M0 0 C1.65 0 3.3 0 5 0 C5 2.97 5 5.94 5 9 C2.38952199 7.694761 2.31933577 6.64173426 1.375 3.9375 C1.11460937 3.20402344 0.85421875 2.47054688 0.5859375 1.71484375 C0.39257812 1.14894531 0.19921875 0.58304687 0 0 Z " fill="#DDD4CA" transform="translate(235,289)"/>
<path d="M0 0 C-0.33 0.66 -0.66 1.32 -1 2 C-1.969375 2.12375 -2.93875 2.2475 -3.9375 2.375 C-7.11582828 2.6491645 -7.11582828 2.6491645 -8.375 5.0625 C-8.58125 5.701875 -8.7875 6.34125 -9 7 C-9 5.68 -9 4.36 -9 3 C-9.99 3 -10.98 3 -12 3 C-12 2.34 -12 1.68 -12 1 C-7.95858806 0.36605303 -4.0934693 -0.12404452 0 0 Z " fill="#1B4575" transform="translate(250,286)"/>
<path d="M0 0 C2.31 0.33 4.62 0.66 7 1 C5.68 2.32 4.36 3.64 3 5 C2.01 4.67 1.02 4.34 0 4 C0 2.68 0 1.36 0 0 Z " fill="#F67E0E" transform="translate(196,299)"/>
<path d="M0 0 C0.33 0 0.66 0 1 0 C1.58052245 3.00988272 2.05989746 5.92889402 2 9 C0.0625 11.0625 0.0625 11.0625 -2 12 C-1.835 11.29875 -1.67 10.5975 -1.5 9.875 C-0.9071902 6.9527027 -0.9071902 6.9527027 -1 3.75 C-1 1 -1 1 0 0 Z " fill="#F6F5F4" transform="translate(248,290)"/>
<path d="M0 0 C0 0.66 0 1.32 0 2 C-5.02125926 2.77916092 -8.97703996 3.13016601 -14 2 C-14 1.67 -14 1.34 -14 1 C-9.27616037 0.34843591 -4.78025483 -0.11950637 0 0 Z " fill="#D0731D" transform="translate(260,281)"/>
<path d="M0 0 C0.66 0 1.32 0 2 0 C2.33 2.97 2.66 5.94 3 9 C1.35 9.66 -0.3 10.32 -2 11 C-1.67 10.01 -1.34 9.02 -1 8 C-0.34 8 0.32 8 1 8 C0.67 5.36 0.34 2.72 0 0 Z " fill="#D9771A" transform="translate(141,310)"/>
<path d="M0 0 C-0.99 1.485 -0.99 1.485 -2 3 C-4.1640625 3.29296875 -4.1640625 3.29296875 -6.625 3.1875 C-7.44226563 3.16042969 -8.25953125 3.13335937 -9.1015625 3.10546875 C-10.04128906 3.05326172 -10.04128906 3.05326172 -11 3 C-11 2.67 -11 2.34 -11 2 C-9.35 2 -7.7 2 -6 2 C-6 1.34 -6 0.68 -6 0 C-3.50907189 -1.24546405 -2.58919267 -0.7767578 0 0 Z " fill="#1A4876" transform="translate(270,286)"/>
<path d="M0 0 C0 3.59857954 -0.95830515 5.09451118 -3 8 C-3.66 8 -4.32 8 -5 8 C-5.3125 5.6875 -5.3125 5.6875 -5 3 C-2.5 1.1875 -2.5 1.1875 0 0 Z " fill="#E2B58C" transform="translate(250,298)"/>
<path d="M0 0 C2.97 0 5.94 0 9 0 C9 0.33 9 0.66 9 1 C7.35 1 5.7 1 4 1 C4 1.66 4 2.32 4 3 C4.66 3 5.32 3 6 3 C5.67 4.32 5.34 5.64 5 7 C5 6.01 5 5.02 5 4 C2.525 3.01 2.525 3.01 0 2 C0 1.34 0 0.68 0 0 Z " fill="#ECE6DF" transform="translate(221,288)"/>
<path d="M0 0 C0.33 0 0.66 0 1 0 C1 1.65 1 3.3 1 5 C-1.31 5 -3.62 5 -6 5 C-5.67 3.68 -5.34 2.36 -5 1 C-4.67 1.66 -4.34 2.32 -4 3 C-2.68 3 -1.36 3 0 3 C0 2.01 0 1.02 0 0 Z " fill="#D77008" transform="translate(323,219)"/>
<path d="M0 0 C2.5 2.3125 2.5 2.3125 5 5 C5 5.99 5 6.98 5 8 C3.02 6.68 1.04 5.36 -1 4 C-0.67 2.68 -0.34 1.36 0 0 Z " fill="#BFBEBC" transform="translate(110,214)"/>
<path d="M0 0 C2.31 0.33 4.62 0.66 7 1 C4.64046906 3.35953094 3.22104383 3.49141413 0 4 C0 2.68 0 1.36 0 0 Z " fill="#DEB894" transform="translate(257,289)"/>
<path d="M0 0 C0.66 0 1.32 0 2 0 C1.34 2.97 0.68 5.94 0 9 C-0.33 9 -0.66 9 -1 9 C-1.09765625 2.84765625 -1.09765625 2.84765625 -1 1 C-0.67 0.67 -0.34 0.34 0 0 Z " fill="#CCCBCA" transform="translate(276,372)"/>
<path d="M0 0 C-0.33 1.32 -0.66 2.64 -1 4 C-2.32 4 -3.64 4 -5 4 C-4.67 3.01 -4.34 2.02 -4 1 C-2 0 -2 0 0 0 Z " fill="#F7C99C" transform="translate(213,309)"/>
<path d="M0 0 C0.99 0.33 1.98 0.66 3 1 C3 2.32 3 3.64 3 5 C1.68 4.67 0.36 4.34 -1 4 C-0.67 2.68 -0.34 1.36 0 0 Z " fill="#E6E6E5" transform="translate(174,106)"/>
</svg>
